<?xml version="1.0" encoding="utf-8"?>
<!-- Generator: Adobe Illustrator 21.0.2, SVG Export Plug-In . SVG Version: 6.00 Build 0)  -->
<svg version="1.1" id="Layer_1" xmlns="http://www.w3.org/2000/svg" xmlns:xlink="http://www.w3.org/1999/xlink" x="0px" y="0px"
	 viewBox="0 0 250 250" style="enable-background:new 0 0 250 250;" xml:space="preserve">
<style type="text/css">
	.st0{fill:#FF9D3A;}
	.st1{fill:#055864;}
</style>
<g>
	<path class="st0" d="M127.4,21.6v34.8c0,2.2,1.8,4,4,4c2.2,0,4-1.8,4-4V21.6c0-2.2-1.8-4-4-4C129.2,17.6,127.4,19.4,127.4,21.6
		L127.4,21.6z M127.4,21.6"/>
	<path class="st0" d="M203.8,95.9H169c-2.2,0-4,1.8-4,4c0,2.2,1.8,4,4,4h34.8c2.2,0,4-1.8,4-4C207.8,97.7,206,95.9,203.8,95.9
		L203.8,95.9z M203.8,95.9"/>
	<path class="st0" d="M55,99.9c0,2.2,1.8,4,4,4h34.8c2.2,0,4-1.8,4-4c0-2.2-1.8-4-4-4H59C56.8,95.9,55,97.7,55,99.9L55,99.9z
		 M55,99.9"/>
	<path class="st0" d="M76.6,44.3c0.7-0.7,1.2-1.8,1.2-2.8c0-1.1-0.4-2.1-1.2-2.8c-0.7-0.7-1.8-1.2-2.8-1.2c-1.1,0-2.1,0.4-2.8,1.2
		c-0.7,0.7-1.2,1.8-1.2,2.8c0,1.1,0.4,2.1,1.2,2.8c0.7,0.7,1.8,1.2,2.8,1.2C74.9,45.5,75.9,45.1,76.6,44.3L76.6,44.3z M76.6,44.3"/>
	<path class="st0" d="M87.4,55.1c-1.5,1.5-1.5,4.1,0,5.6c0.8,0.8,1.8,1.2,2.8,1.2c1,0,2.1-0.4,2.8-1.2c1.5-1.5,1.5-4.1,0-5.6
		C91.5,53.6,89,53.6,87.4,55.1L87.4,55.1z M87.4,55.1"/>
	<path class="st0" d="M84.9,52.6c1.5-1.5,1.5-4.1,0-5.6c-1.5-1.5-4.1-1.5-5.6,0c-1.5,1.5-1.5,4.1,0,5.6c0.8,0.8,1.8,1.1,2.8,1.1
		C83.1,53.8,84.1,53.4,84.9,52.6L84.9,52.6z M84.9,52.6"/>
	<path class="st0" d="M95.7,63.4c-0.7,0.7-1.1,1.8-1.1,2.8c0,1.1,0.4,2.1,1.2,2.8c0.7,0.7,1.8,1.2,2.8,1.2c1.1,0,2.1-0.4,2.8-1.2
		c0.8-0.7,1.2-1.8,1.2-2.8c0-1.1-0.4-2.1-1.2-2.8c-0.7-0.7-1.8-1.2-2.8-1.2C97.4,62.2,96.4,62.6,95.7,63.4L95.7,63.4z M95.7,63.4"/>
	<path class="st0" d="M182.4,41.3c-0.7,0.7-1.2,1.8-1.2,2.8c0,1.1,0.4,2.1,1.2,2.8c0.7,0.7,1.8,1.2,2.8,1.2c1.1,0,2.1-0.4,2.8-1.2
		c0.7-0.7,1.1-1.8,1.1-2.8c0-1.1-0.4-2.1-1.1-2.8c-0.7-0.7-1.8-1.1-2.8-1.1C184.2,40.1,183.2,40.5,182.4,41.3L182.4,41.3z
		 M182.4,41.3"/>
	<path class="st0" d="M168.8,64.5c1,0,2-0.4,2.8-1.1c1.5-1.5,1.5-4.1,0-5.6c-1.5-1.5-4.1-1.5-5.6,0c-1.5,1.5-1.5,4.1,0,5.6
		C166.8,64.1,167.8,64.5,168.8,64.5L168.8,64.5z M168.8,64.5"/>
	<path class="st0" d="M174.2,49.5c-1.5,1.5-1.5,4.1,0,5.6c0.8,0.8,1.8,1.2,2.8,1.2c1,0,2-0.4,2.8-1.2c1.5-1.5,1.5-4.1,0-5.6
		C178.3,47.9,175.8,47.9,174.2,49.5L174.2,49.5z M174.2,49.5"/>
	<path class="st0" d="M156.6,68.7c0,1.1,0.4,2.1,1.2,2.8c0.7,0.7,1.8,1.2,2.8,1.2c1.1,0,2.1-0.4,2.8-1.2c0.7-0.7,1.2-1.8,1.2-2.8
		c0-1.1-0.4-2.1-1.2-2.8c-0.7-0.7-1.8-1.1-2.8-1.1c-1.1,0-2.1,0.4-2.8,1.1C157.1,66.6,156.6,67.7,156.6,68.7L156.6,68.7z
		 M156.6,68.7"/>
	<path class="st1" d="M207.1,151.4c0-12.4-10.1-22.5-22.5-22.5h-34.9v-25.2c0-10.6-3.1-18.3-9.2-22.7c-9.7-7.1-23-3-23.5-2.9
		c-1.7,0.5-2.8,2.1-2.8,3.8v28.2c0,22.3-25.8,29.9-26.9,30.2c-0.5,0.1-1,0.4-1.4,0.7c-1.4-1.7-3.5-2.8-5.8-2.8H52.5
		c-4.1,0-7.4,3.3-7.4,7.4v77.5c0,4.1,3.3,7.4,7.4,7.4h27.4c2.7,0,5.1-1.5,6.4-3.7c4,3.9,9.5,6.2,15.5,6.2H171c15.3,0,25-8,26.7-22
		L207,152C207.1,151.8,207.1,151.6,207.1,151.4L207.1,151.4z M79.5,222.5H53.1v-76.4h26.4V222.5z M189.8,210v0.1
		c-1.2,9.9-7.6,15-18.8,15h-69.1c-8,0-14.5-6.5-14.5-14.5V148c0.6,0.1,1.3,0.1,1.9,0c1.3-0.4,32.7-9.5,32.7-37.8v-25
		c3.4-0.5,9.4-0.8,13.6,2.3c4,2.9,6,8.4,6,16.3v29.2c0,2.2,1.8,4,4,4h38.9c7.9,0,14.3,6.3,14.5,14.2L189.8,210z M189.8,210"/>
</g>
<g>
</g>
<g>
</g>
<g>
</g>
<g>
</g>
<g>
</g>
<g>
</g>
<g>
</g>
<g>
</g>
<g>
</g>
<g>
</g>
<g>
</g>
<g>
</g>
<g>
</g>
<g>
</g>
<g>
</g>
</svg>
