<?xml version="1.0" encoding="utf-8"?>
<!-- Generator: Adobe Illustrator 21.0.2, SVG Export Plug-In . SVG Version: 6.00 Build 0)  -->
<svg version="1.1" id="Layer_1" xmlns="http://www.w3.org/2000/svg" xmlns:xlink="http://www.w3.org/1999/xlink" x="0px" y="0px"
	 viewBox="0 0 250 250" style="enable-background:new 0 0 250 250;" xml:space="preserve">
<style type="text/css">
	.st0{fill:#777777;}
</style>
<g>
	<path class="st0" d="M126.9,21.6v34.8c0,2.2,1.8,4,4,4c2.2,0,4-1.8,4-4V21.6c0-2.2-1.8-4-4-4C128.7,17.6,126.9,19.4,126.9,21.6
		L126.9,21.6z M126.9,21.6"/>
	<path class="st0" d="M203.3,95.9h-34.8c-2.2,0-4,1.8-4,4c0,2.2,1.8,4,4,4h34.8c2.2,0,4-1.8,4-4C207.3,97.7,205.5,95.9,203.3,95.9
		L203.3,95.9z M203.3,95.9"/>
	<path class="st0" d="M54.5,99.9c0,2.2,1.8,4,4,4h34.8c2.2,0,4-1.8,4-4c0-2.2-1.8-4-4-4H58.5C56.3,95.9,54.5,97.7,54.5,99.9
		L54.5,99.9z M54.5,99.9"/>
	<path class="st0" d="M76.1,44.3c0.7-0.7,1.2-1.8,1.2-2.8c0-1.1-0.4-2.1-1.2-2.8c-0.7-0.7-1.8-1.2-2.8-1.2c-1.1,0-2.1,0.4-2.8,1.2
		c-0.7,0.7-1.2,1.8-1.2,2.8c0,1.1,0.4,2.1,1.2,2.8c0.7,0.7,1.8,1.2,2.8,1.2C74.4,45.5,75.4,45.1,76.1,44.3L76.1,44.3z M76.1,44.3"/>
	<path class="st0" d="M86.9,55.1c-1.5,1.5-1.5,4.1,0,5.6c0.8,0.8,1.8,1.2,2.8,1.2c1,0,2.1-0.4,2.8-1.2c1.5-1.5,1.5-4.1,0-5.6
		C91,53.6,88.5,53.6,86.9,55.1L86.9,55.1z M86.9,55.1"/>
	<path class="st0" d="M84.4,52.6c1.5-1.5,1.5-4.1,0-5.6c-1.5-1.5-4.1-1.5-5.6,0c-1.5,1.5-1.5,4.1,0,5.6c0.8,0.8,1.8,1.1,2.8,1.1
		C82.6,53.8,83.6,53.4,84.4,52.6L84.4,52.6z M84.4,52.6"/>
	<path class="st0" d="M95.1,63.4c-0.7,0.7-1.1,1.8-1.1,2.8c0,1.1,0.4,2.1,1.2,2.8c0.7,0.7,1.8,1.2,2.8,1.2c1.1,0,2.1-0.4,2.8-1.2
		c0.8-0.7,1.2-1.8,1.2-2.8c0-1.1-0.4-2.1-1.2-2.8c-0.7-0.7-1.8-1.2-2.8-1.2C96.9,62.2,95.9,62.6,95.1,63.4L95.1,63.4z M95.1,63.4"/>
	<path class="st0" d="M181.9,41.3c-0.7,0.7-1.2,1.8-1.2,2.8c0,1.1,0.4,2.1,1.2,2.8c0.7,0.7,1.8,1.2,2.8,1.2c1.1,0,2.1-0.4,2.8-1.2
		c0.7-0.7,1.1-1.8,1.1-2.8c0-1.1-0.4-2.1-1.1-2.8c-0.7-0.7-1.8-1.1-2.8-1.1C183.7,40.1,182.7,40.5,181.9,41.3L181.9,41.3z
		 M181.9,41.3"/>
	<path class="st0" d="M168.3,64.5c1,0,2-0.4,2.8-1.1c1.5-1.5,1.5-4.1,0-5.6c-1.5-1.5-4.1-1.5-5.6,0c-1.5,1.5-1.5,4.1,0,5.6
		C166.3,64.1,167.3,64.5,168.3,64.5L168.3,64.5z M168.3,64.5"/>
	<path class="st0" d="M173.7,49.5c-1.5,1.5-1.5,4.1,0,5.6c0.8,0.8,1.8,1.2,2.8,1.2c1,0,2-0.4,2.8-1.2c1.5-1.5,1.5-4.1,0-5.6
		C177.8,47.9,175.3,47.9,173.7,49.5L173.7,49.5z M173.7,49.5"/>
	<path class="st0" d="M156.1,68.7c0,1.1,0.4,2.1,1.2,2.8c0.7,0.7,1.8,1.2,2.8,1.2c1.1,0,2.1-0.4,2.8-1.2c0.7-0.7,1.2-1.8,1.2-2.8
		c0-1.1-0.4-2.1-1.2-2.8c-0.7-0.7-1.8-1.1-2.8-1.1c-1.1,0-2.1,0.4-2.8,1.1C156.6,66.6,156.1,67.7,156.1,68.7L156.1,68.7z
		 M156.1,68.7"/>
	<path class="st0" d="M206.6,151.4c0-12.4-10.1-22.5-22.5-22.5h-34.9v-25.2c0-10.6-3.1-18.3-9.2-22.7c-9.7-7.1-23-3-23.5-2.9
		c-1.7,0.5-2.8,2.1-2.8,3.8v28.2c0,22.3-25.8,29.9-26.9,30.2c-0.5,0.1-1,0.4-1.4,0.7c-1.4-1.7-3.5-2.8-5.8-2.8H52
		c-4.1,0-7.4,3.3-7.4,7.4v77.5c0,4.1,3.3,7.4,7.4,7.4h27.4c2.7,0,5.1-1.5,6.4-3.7c4,3.9,9.5,6.2,15.5,6.2h69.1c15.3,0,25-8,26.7-22
		l9.3-59.1C206.5,151.8,206.6,151.6,206.6,151.4L206.6,151.4z M79,222.5H52.6v-76.4H79V222.5z M189.3,210v0.1
		c-1.2,9.9-7.6,15-18.8,15h-69.1c-8,0-14.5-6.5-14.5-14.5V148c0.6,0.1,1.3,0.1,1.9,0c1.3-0.4,32.7-9.5,32.7-37.8v-25
		c3.4-0.5,9.4-0.8,13.6,2.3c4,2.9,6,8.4,6,16.3v29.2c0,2.2,1.8,4,4,4h38.9c7.9,0,14.3,6.3,14.5,14.2L189.3,210z M189.3,210"/>
</g>
<g>
</g>
<g>
</g>
<g>
</g>
<g>
</g>
<g>
</g>
<g>
</g>
<g>
</g>
<g>
</g>
<g>
</g>
<g>
</g>
<g>
</g>
<g>
</g>
<g>
</g>
<g>
</g>
<g>
</g>
</svg>
