<?xml version="1.0" encoding="utf-8"?>
<!-- Generator: Adobe Illustrator 21.0.2, SVG Export Plug-In . SVG Version: 6.00 Build 0)  -->
<svg version="1.1" id="Layer_1" xmlns="http://www.w3.org/2000/svg" xmlns:xlink="http://www.w3.org/1999/xlink" x="0px" y="0px"
	 viewBox="0 0 250 250" style="enable-background:new 0 0 250 250;" xml:space="preserve">
<style type="text/css">
	.st0{fill:#FF891F;}
	.st1{fill:#055864;}
</style>
<g>
	<path class="st0" d="M114.9,47.5c-9-2.7-18.1-4-27.5-1.8c-33,7.8-46.5,47.2-25.3,73.6c0.7,0.9,1.5,1.8,2.2,2.7
		c-0.4,0.3-0.8,0.6-1.1,1c-4.4-5.3-8.8-10.5-13.2-15.8c-4.9,4-8.4,14.6-7,24c2,13.6,9.3,23.3,22.2,28.4c4.4,1.7,8.5,2.2,13.4,0.4
		c4.2-1.5,9.5-0.7,14.2-0.1c3.9,0.5,7.6,2.1,11.5,3.2c-1.9-8.4-4.7-10.3-14.3-9.8c6-7.9,12.6-7.2,25.8,2.9
		c2.3-6.7,3.4-14.4,11.1-17.3c2.7-1,6-0.5,9-0.6c0.1,0.4,0.1,0.9,0.2,1.3c-1.8,1.3-4,2.3-5.4,3.9c-1.8,2.3-4.1,5-4.2,7.6
		c-0.2,3.9,1.3,7.9,2.1,11.8c3.2-1.4,6.8-2.2,9.4-4.3c3.1-2.5,5.4-6.2,9-10.5c-0.5,5.3-0.8,9.7-1.2,14.3c2.8-0.6,6-1.9,9.2-1.8
		c3.7,0.1,8,0.3,10.8,2.2c2.8,1.9,4.7,2,7.5,0.9c18.1-6.8,29.9-23.9,29.8-43.2c-0.1-19.6-12.3-36.7-30.7-43.1
		c-1.4-0.5-2.8-0.9-4.4-1.4c4.9-1.1,11.9,0.8,19.4,5.1c1.7,0.9,3.6,1.5,5.3,2.2c0.7,1.1,1.2,2.3,2,3.2c13.7,13,18.5,28.9,13.5,46.9
		c-5,17.8-17.5,28.6-35.7,32.6c-1,0.2-1.9,0.4-1.8,0.4c-1.1,4.9-1.4,9.6-3.4,13.4c-1.2,2.2-5.1,2.9-8.3,4.5c0.1-1.4,0-1.8,0.1-1.9
		c2.8-3,4.9-6.2,2-10.2c-2.4-3.3-7.4-3.4-11.8-0.7c-7.3,4.4-14.6,8.8-22.2,13.3c-0.4,7-1,15.2-1.3,23.5c-0.2,5.4-2.3,8.3-8.1,7.7
		c-1.6-0.1-3.2,0.1-5,0.2c1.2-5.8,2.5-11.2,3.4-16.6c0.4-2.6,0.5-5.3,0.4-8c-0.2-4.7-1.3-8.1-6.9-9.9c-5.2-1.7-9.4-6.1-14.3-8.9
		c-3.2-1.8-6.9-3.8-10.4-4c-2.3-0.1-5.5,2.3-6.9,4.5c-0.9,1.3,0.9,4.3,1.6,7.2c-1.9,1.6-4.5,0.3-6.6-1.5c-5-4.3-3.5-9.5-1-14.9
		c-3.4-0.7-6.4-1.1-9.4-1.9c-23.6-6.9-32.8-35.8-17.2-54.8c2.6-3.2,3.2-5.7,2.2-9.7c-4.6-18.6,0.5-34.5,15.1-46.7
		c14.4-12,30.9-13.8,48.2-6.5C112.4,45.3,113.6,46.6,114.9,47.5z"/>
	<path class="st1" d="M169.7,164.5C169.7,164.5,169.7,164.5,169.7,164.5c-1.2-0.1-2.5-0.6-3.9-1.6c-2.9-1.9-7.2-2.2-10.8-2.2
		c-3.2,0-6.4,1.2-9.2,1.8c0.4-4.6,0.8-8.9,1.2-14.3c-3.6,4.3-5.9,8-9,10.5c-2.6,2.1-6.3,2.9-9.4,4.3c-0.8-3.9-2.3-7.9-2.1-11.8
		c0.1-2.6,2.4-5.4,4.2-7.6c1.4-1.7,3.6-2.6,5.4-3.9c-0.1-0.4-0.1-0.9-0.2-1.3c-3,0.2-6.3-0.4-9,0.6c-7.7,2.9-8.7,10.6-11.1,17.3
		c-13.2-10.1-19.7-10.8-25.8-2.9c9.5-0.5,12.4,1.4,14.3,9.8c-3.9-1.1-7.6-2.7-11.5-3.2c-4.7-0.6-9.9-1.4-14.2,0.1
		c-1.4,0.5-2.8,0.8-4.1,1c-0.4,0.5-0.8,1.1-1.3,1.6c-0.5,0.5-0.8,1.1-1.1,1.7c0,0,0,0,0,0c-2.5,5.4-4,10.6,1,14.9
		c2.1,1.8,4.7,3.2,6.6,1.5c-0.7-2.9-2.5-5.9-1.6-7.2c1.5-2.2,4.6-4.6,6.9-4.5c3.5,0.2,7.2,2.1,10.4,4c4.9,2.8,9.1,7.2,14.3,8.9
		c5.6,1.8,6.7,5.2,6.9,9.9c0.1,2.6,0,5.4-0.4,8c-0.9,5.4-2.2,10.7-3.4,16.6c1.7-0.1,3.4-0.4,5-0.2c5.8,0.5,7.9-2.4,8.1-7.7
		c0.3-8.3,0.9-16.5,1.3-23.5c7.6-4.5,14.9-8.9,22.2-13.3c4.5-2.7,9.4-2.5,11.8,0.7c2.9,4,0.8,7.2-2,10.2c-0.1,0.1,0,0.5-0.1,1.9
		c3.2-1.6,7.2-2.3,8.3-4.5c2-3.7,2.3-8.4,3.4-13.2C170.5,165.9,170.1,165.2,169.7,164.5z"/>
	<path class="st0" d="M193.7,82c0-4.8,0.9-9.7-0.1-14.2c-2.3-9.8-11.8-15.7-21.3-14.2c1.4,5.1,2.8,10.3,4.2,15.4
		c-0.4,0.2-0.8,0.4-1.2,0.5c-5-16.9-15.8-27.1-33.5-27.7c-15.9-0.5-26.9,8-33.4,22.4c-0.4-0.2-0.8-0.4-1.1-0.6
		c1.7-3.8,3.5-7.7,5.2-11.5c0.7-1.6,1.5-3.2,2.2-4.8c1.4-0.8,2.9-1.5,4.1-2.5c15-12.6,36.2-11,49.1,3.9c1.9,2.2,3.6,2.7,6.3,2.4
		c8.6-0.9,15.4,2.4,19.8,9.8C198,67.8,198.5,75,193.7,82z"/>
	<path class="st0" d="M169.3,104.1c-3.3-17.2-12.2-28.9-29.4-31.7c-17-2.8-29.2,4.9-37.6,19.7c-0.1-13,17.7-26.3,34-25.6
		C155.7,67.3,170.8,84.2,169.3,104.1z"/>
	<path class="st0" d="M138.9,119c-12.8-12-26.8-16.2-42.5-8.4c-15.4,7.7-20.8,21.1-18.8,38c-7.7-10.5-1.1-31.7,12.5-40.7
		C106.2,97.1,128.4,101.9,138.9,119z"/>
	<path class="st0" d="M194.7,120.1c-0.4,11.4-5,20.9-14.1,28.5C185.4,138.9,190.1,129.4,194.7,120.1z"/>
	<path class="st0" d="M62.5,94.6C62,83.1,66,73.3,74.3,65.4C70.4,75.1,66.4,84.8,62.5,94.6z"/>
	<path class="st0" d="M51.7,127.7c5.2,7.9,10.3,15.6,15.4,23.4C58.4,145.5,53.6,137.6,51.7,127.7z"/>
	<path class="st0" d="M165.2,65.2c-6.4-4.1-13.3-8.4-19.7-12.4C152,52.3,162.1,58.6,165.2,65.2z"/>
	<path class="st0" d="M132.2,84c-7.2,4.9-13.8,9.4-20.3,13.9C116.4,90.4,123,86,132.2,84z"/>
</g>
<g>
</g>
<g>
</g>
<g>
</g>
<g>
</g>
<g>
</g>
<g>
</g>
<g>
</g>
<g>
</g>
<g>
</g>
<g>
</g>
<g>
</g>
<g>
</g>
<g>
</g>
<g>
</g>
<g>
</g>
</svg>
