<?xml version="1.0" encoding="utf-8"?>
<!-- Generator: Adobe Illustrator 21.0.2, SVG Export Plug-In . SVG Version: 6.00 Build 0)  -->
<svg version="1.1" id="Layer_1" xmlns="http://www.w3.org/2000/svg" xmlns:xlink="http://www.w3.org/1999/xlink" x="0px" y="0px"
	 viewBox="0 0 250 250" style="enable-background:new 0 0 250 250;" xml:space="preserve">
<style type="text/css">
	.st0{fill:#055864;}
</style>
<g>
	<path class="st0" d="M89.6,56.3c1.7,0.6,4.7,1.5,7.6,2.6c9.3,3.4,18.6,6.8,28,10.2c8.1,3,16.2,6,24.3,9c5,1.9,10.1,3.7,15.1,5.6
		c5.8,2.2,7.9,7,4.9,13c-0.2,0.4-1.3,0.7-1.8,0.5c-5-1.7-9.9-3.6-14.8-5.4c-6.2-2.3-12.5-4.6-18.7-6.9c-7.2-2.7-14.5-5.3-21.7-7.9
		c-9.2-3.4-18.3-6.7-27.5-10.1c-1.6-0.6-3.2-1.1-4.7-1.8c-0.4-0.2-0.8-0.9-0.8-1.3C80.3,59.1,83.7,56.3,89.6,56.3z"/>
	<path class="st0" d="M142.2,69.9c-7.6-2.8-15.1-5.5-22.5-8.3c0.3-4.1,4.2-6.4,8-5c3.7,1.4,7.5,2.7,11.2,4.1
		C143.2,62.3,144.6,66.1,142.2,69.9z"/>
	<path class="st0" d="M167.3,105c-0.2-0.2-0.4-0.3-0.7-0.3c-0.1,0-0.2,0-0.3,0c-0.2,0-0.4-0.1-0.6,0c-4,0.1-7.9,0.1-11.9,0.1
		c-6.8,0-13.7,0-20.5,0c-6.1,0-12.2,0-18.4,0c-6.8,0-13.7,0-20.5,0c-4,0-7.9,0-11.9-0.1c-0.2,0-0.4,0-0.6,0c-0.1,0-0.2,0-0.3,0
		c-0.3,0-0.5,0.1-0.7,0.3c-0.3,0.3-0.4,0.9-0.4,1.4c0.1,0.7,0.2,1.3,0.2,2c1,10.2,2.5,20.5,3.7,30.7c1.5,13.1,2.9,26.3,4.4,39.4
		c0.5,4,0.7,7.7,3.5,10.9c1.4,1.6,3.1,2.6,4.8,3.3c6.2,3,14.8,1.5,21.2,1.5c1.9,0,3.8,0,5.7,0c1.9,0,3.8,0,5.7,0
		c6.4,0,14.9,1.5,21.2-1.5c1.8-0.7,3.4-1.7,4.8-3.3c2.8-3.2,3-6.9,3.5-10.9c1.5-13.1,2.9-26.3,4.4-39.4c1.2-10.2,2.7-20.4,3.7-30.7
		c0.1-0.7,0.2-1.3,0.2-2C167.8,105.9,167.7,105.3,167.3,105z M105.6,181.8c-1.7,0.2-3.4-1-3.6-2.8l-8.3-63.6c-0.2-1.7,1-3.4,2.8-3.6
		l0,0c1.7-0.2,3.4,1,3.6,2.8l8.3,63.6C108.6,179.9,107.4,181.5,105.6,181.8z M128.6,177c0,2.4-2,4.4-4.4,4.4h0c-2.4,0-4.4-2-4.4-4.4
		v-61.7c0-2.4,2-4.4,4.4-4.4h0c2.4,0,4.4,2,4.4,4.4V177z M154.5,115.4l-8.3,63.6c-0.2,1.7-1.8,3-3.6,2.8l0,0c-1.7-0.2-3-1.8-2.8-3.6
		l8.3-63.6c0.2-1.7,1.8-3,3.6-2.8S154.8,113.6,154.5,115.4z"/>
</g>
<g>
</g>
<g>
</g>
<g>
</g>
<g>
</g>
<g>
</g>
<g>
</g>
<g>
</g>
<g>
</g>
<g>
</g>
<g>
</g>
<g>
</g>
<g>
</g>
<g>
</g>
<g>
</g>
<g>
</g>
</svg>
