<?xml version="1.0" encoding="utf-8"?>
<!-- Generator: Adobe Illustrator 21.0.2, SVG Export Plug-In . SVG Version: 6.00 Build 0)  -->
<svg version="1.1" id="Layer_1" xmlns="http://www.w3.org/2000/svg" xmlns:xlink="http://www.w3.org/1999/xlink" x="0px" y="0px"
	 viewBox="0 0 250 250" style="enable-background:new 0 0 250 250;" xml:space="preserve">
<style type="text/css">
	.st0{fill:#055864;}
</style>
<path class="st0" d="M65,180.8c0,0,0.1,0.1,0.1,0.1c0.1,0,0.2,0,0.3,0c0.1,0,0.2,0,0.2,0c1.1-0.2,2.2-0.5,3.3-0.7
	c1.5-0.3,3-0.6,4.5-0.9c1.7-0.4,3.4-0.7,5.2-1c1.8-0.4,3.7-0.7,5.5-1.1c1.3-0.3,2.5-0.5,3.8-0.8c2.2-0.5,4.6-1,6.9-1.4
	c1.1-0.2,1.9-0.6,2.6-1.4c10.6-10.6,21.2-21.3,31.9-31.9l14.8-14.8c6-6,12-12,17.9-17.9c-0.8-0.7-1.5-1.4-2.2-2.2
	c-0.4-0.5-0.9-0.9-1.3-1.3c-0.9-0.9-1.8-1.7-2.6-2.6c-0.9-0.9-1.8-1.7-2.7-2.6c-0.3-0.3-0.5-0.6-0.7-0.8c-0.1-0.1-0.2-0.3-0.3-0.4
	c-5-5.1-10.1-10.1-15.2-15.2l-12.4,12.4c-17.4,17.4-34.9,34.9-52.3,52.3c-0.6,0.6-1,1.3-1.2,2c-0.5,2.7-1.1,5.4-1.7,8.1l-0.2,1.1
	c-0.3,1.2-0.5,2.5-0.8,3.7c-0.3,1.3-0.6,2.7-0.8,4l-0.3,1.7c-0.5,2.4-1,4.8-1.4,7.1c-0.2,1.2-0.4,2.5-0.6,3.7L65,180.8z"/>
<path class="st0" d="M182.2,97.1L182.2,97.1L182.2,97.1z"/>
<path class="st0" d="M154.7,93.5c1,0.9,2.7,2.7,5.2,5.2l0.1,0.1c1.6,1.7,3.3,3.3,4.9,4.9l1,1l2.5-2.5c3.7-3.7,7.5-7.4,11.2-11.2
	c1.8-1.8,1.7-4.4-0.1-6.2c-2.2-2.2-4.4-4.4-6.6-6.6c-3.9-3.9-8-7.9-11.9-11.9c-0.9-0.9-2.1-1.4-3.4-1.4c0,0,0,0,0,0
	c-1.3,0-2.5,0.5-3.4,1.4c-3,3.1-6.1,6.2-9.1,9.2c-1.4,1.3-2.7,2.7-4.1,4.1c-0.1,0.1-0.1,0.1-0.2,0.2c0,0,0.1,0.1,0.2,0.2
	c1.4,1.4,2.8,2.8,4.1,4.2C148.3,87.3,151.5,90.5,154.7,93.5L154.7,93.5z"/>
<g>
</g>
<g>
</g>
<g>
</g>
<g>
</g>
<g>
</g>
<g>
</g>
<g>
</g>
<g>
</g>
<g>
</g>
<g>
</g>
<g>
</g>
<g>
</g>
<g>
</g>
<g>
</g>
<g>
</g>
</svg>
