<?xml version="1.0" encoding="utf-8"?>
<!-- Generator: Adobe Illustrator 21.0.2, SVG Export Plug-In . SVG Version: 6.00 Build 0)  -->
<svg version="1.1" id="Layer_1" xmlns="http://www.w3.org/2000/svg" xmlns:xlink="http://www.w3.org/1999/xlink" x="0px" y="0px"
	 viewBox="0 0 250 250" style="enable-background:new 0 0 250 250;" xml:space="preserve">
<style type="text/css">
	.st0{fill:#FF9D3A;}
	.st1{fill:#055864;}
</style>
<path class="st0" d="M124.7,232.1c-59-0.3-105.7-47.3-105.3-106.2C19.6,67.4,67.2,20.4,126,21c58.1,0.5,104.9,47.9,104.5,106.2
	C230.1,185.7,183,232.3,124.7,232.1z M125,226.1c54.2,1.6,100.3-45.6,99.9-99.8c-0.4-54.9-44.8-99.3-99.9-99.3
	c-55.6,0-100,44.7-100,100C25.1,183,72.8,227.9,125,226.1z"/>
<path class="st1" d="M158.3,106.3c-3.6-3-7-5.6-10.6-8.5c-2.8-2.3-6.8-6.1-10.8-5.3c-1.9,0.4-4.8,1.8-6.6,2.6
	c-8.5,3.8-18.8,4.8-21.8,4.9c-2.2,0.1-5.9,0.3-7.7-1.1c-3.9-3.2,4.6-4.1,6.4-4.1c9.2,0,17.6-2.8,25.8-6.6c5.7-2.6,9-1.3,14.4,3
	c2.9,2.3,7.3,5.5,10.6,8.2c1.6-9.4-1.8-19.8-11.4-26.6c-17-12.1-44.6-7.5-52.9,10.6c-4.7,10.2-3.9,22.1-2,32.9
	c1.2,6.9,3,13.8,6,20.1c3,6.3,7.9,12.3,8.2,19.7c0.4,7.6-4.1,15.1-11.1,17.7c-8.5,3.2-17.1,5.9-25.8,8.4c-1.3,0.4-4.3,0.1-4.7-1.5
	c-0.4-1.7,2.2-2.9,3.7-3.5c4.5-1.7,9.2-3.2,13.7-4.8c4.1-1.4,8.7-2.5,12.4-4.8c12.2-7.6,1.4-22.2-2.6-31.1c-3.5-7.7-6-15.9-6.9-24.4
	c-1-9.9,0-20,2.5-29.6c2.8-10.4,12.1-16.3,22.3-19.4c20.9-6.4,47.1,0.7,52.8,23.2c2.3,9.1,1,19.4-0.1,28.9
	c-0.8,6.6-1.9,13.2-4.1,19.4c-1.3,3.7-10,15.9-10.9,19.4c-1.6,6.6,3.4,12.8,9.4,14.9c8.1,2.9,16.3,5.2,24.4,8
	c1.7,0.6,4.8,1.7,4.5,3.5c-0.3,1.8-3.8,2-5.3,1.6c-10.4-3.2-21-6.2-31-10.6c-8.4-3.6-9.4-17.7-5.2-24.6c2.5-4.1,5.7-7.3,7.6-11.9
	C155.6,126.4,156,115.5,158.3,106.3z"/>
<g>
</g>
<g>
</g>
<g>
</g>
<g>
</g>
<g>
</g>
<g>
</g>
<g>
</g>
<g>
</g>
<g>
</g>
<g>
</g>
<g>
</g>
<g>
</g>
<g>
</g>
<g>
</g>
<g>
</g>
</svg>
