<?xml version="1.0" encoding="utf-8"?>
<!-- Generator: Adobe Illustrator 21.0.2, SVG Export Plug-In . SVG Version: 6.00 Build 0)  -->
<svg version="1.1" id="Layer_1" xmlns="http://www.w3.org/2000/svg" xmlns:xlink="http://www.w3.org/1999/xlink" x="0px" y="0px"
	 viewBox="0 0 250 250" style="enable-background:new 0 0 250 250;" xml:space="preserve">
<style type="text/css">
	.st0{fill:#055864;}
	.st1{fill:#FF9D3A;}
</style>
<path class="st0" d="M202.6,212.1l-9.9-146.6H60.3l-9.9,146.6H43v19.4h6.2h154.7h4.6v-19.4H202.6z M162.6,80.8c3.8,0,6.8,3,6.8,6.8
	c0,3.8-3,6.8-6.8,6.8c-3.8,0-6.8-3-6.8-6.8C155.8,83.9,158.8,80.8,162.6,80.8z M90.5,80.8c3.8,0,6.8,3,6.8,6.8c0,3.8-3,6.8-6.8,6.8
	c-3.8,0-6.8-3-6.8-6.8C83.7,83.9,86.7,80.8,90.5,80.8z"/>
<path class="st1" d="M100.1,58.5c5.8-18,15.6-30.1,26.4-30.1c10.8,0,20.6,12.1,26.4,30.1h8.4c-6.8-22.9-19.7-38-34.8-38
	c-15.1,0-28,15.2-34.8,38H100.1z"/>
<g>
</g>
<g>
</g>
<g>
</g>
<g>
</g>
<g>
</g>
<g>
</g>
<g>
</g>
<g>
</g>
<g>
</g>
<g>
</g>
<g>
</g>
<g>
</g>
<g>
</g>
<g>
</g>
<g>
</g>
</svg>
