<?xml version="1.0" encoding="utf-8"?>
<!-- Generator: Adobe Illustrator 21.0.2, SVG Export Plug-In . SVG Version: 6.00 Build 0)  -->
<svg version="1.1" id="Layer_1" xmlns="http://www.w3.org/2000/svg" xmlns:xlink="http://www.w3.org/1999/xlink" x="0px" y="0px"
	 viewBox="0 0 250 250" style="enable-background:new 0 0 250 250;" xml:space="preserve">
<style type="text/css">
	.st0{fill:#065864;}
	.st1{fill:#F89B3D;}
</style>
<g>
	<path class="st0" d="M218.7,118.5V71.9c0-11.2-9.1-20.3-20.3-20.3h-13.7l-14.1-25.3c-2.1-3.9-6.2-6.3-10.6-6.3
		c-2.1,0-4.1,0.5-5.9,1.5l-54,30H39.7c-11.2,0-20.3,9.1-20.3,20.3v139.4c0,11.2,9.1,20.3,20.3,20.3h158.7c11.2,0,20.3-9.1,20.3-20.3
		v-40.9h10.1v-51.8H218.7z M198.4,59.7c6.3,0,11.4,4.8,12,10.8h-15.3l-6-10.8H198.4z M158,28.6c1.9-1.1,4.5-0.3,5.5,1.6l22.4,40.3
		H82.7L158,28.6z M210.6,211.2c0,6.7-5.5,12.2-12.2,12.2H39.7c-6.7,0-12.2-5.5-12.2-12.2V71.9c0-6.7,5.5-12.2,12.2-12.2h45.7
		L66,70.5H42.3c-2.2,0-4.1,1.8-4.1,4.1c0,2.2,1.8,4.1,4.1,4.1h168.3v39.9h-29.7c-13.8,0-25,11.2-25,25v1.7c0,13.8,11.2,25,25,25
		h29.7V211.2z M220.7,162.2h-39.8c-9.3,0-16.9-7.6-16.9-16.9v-1.7c0-9.3,7.6-16.9,16.9-16.9h39.8V162.2z"/>
	<path class="st1" d="M66,70.5H42.3c-2.2,0-4.1,1.8-4.1,4.1c0,2.2,1.8,4.1,4.1,4.1h168.3c0-0.5-0.1-7.9-0.1-8.1h-15.3l-24.6-44.2
		c-2.1-3.9-6.2-6.3-10.6-6.3c-2.1,0-4.1,0.5-5.9,1.5L66,70.5z M158,28.6c1.9-1.1,4.5-0.3,5.5,1.6l22.4,40.3H82.7L158,28.6z"/>
	<path class="st1" d="M193.3,144.8c0,5-4,9-9,9c-5,0-9-4-9-9c0-5,4-9,9-9C189.3,135.8,193.3,139.8,193.3,144.8L193.3,144.8z"/>
	<path d="M193.3,144.8"/>
</g>
<g>
</g>
<g>
</g>
<g>
</g>
<g>
</g>
<g>
</g>
<g>
</g>
<g>
</g>
<g>
</g>
<g>
</g>
<g>
</g>
<g>
</g>
<g>
</g>
<g>
</g>
<g>
</g>
<g>
</g>
</svg>
