<?xml version="1.0" encoding="utf-8"?>
<!-- Generator: Adobe Illustrator 21.0.2, SVG Export Plug-In . SVG Version: 6.00 Build 0)  -->
<svg version="1.1" id="Layer_1" xmlns="http://www.w3.org/2000/svg" xmlns:xlink="http://www.w3.org/1999/xlink" x="0px" y="0px"
	 viewBox="0 0 250 250" style="enable-background:new 0 0 250 250;" xml:space="preserve">
<style type="text/css">
	.st0{fill:#FF9D3A;}
	.st1{fill:#055864;}
</style>
<path class="st0" d="M232.8,90.5c-6.5-7-15.6-10.9-25.9-10.9h-24.6V66.4c0-3.2-2.6-5.9-5.9-5.9H59.4c-3.2,0-5.9,2.6-5.9,5.9v20.4
	H30.7c-3.2,0-5.9,2.6-5.9,5.9c0,3.2,2.6,5.9,5.9,5.9h28.7c3.2,0,5.9-2.6,5.9-5.9V72.3h105.4v91.9h-55.2c-0.2,0-0.5,0-0.7,0.1
	c-2.9-7.2-10-12.4-18.3-12.4c-8.3,0-15.4,5.2-18.3,12.5c-0.4-0.1-0.8-0.1-1.3-0.1H65.3v-20.5c0-3.2-2.6-5.9-5.9-5.9H30.7
	c-3.2,0-5.9,2.6-5.9,5.9c0,3.2,2.6,5.9,5.9,5.9h22.8V170c0,3.2,2.6,5.9,5.9,5.9h17.8c2,8.8,9.8,15.3,19.2,15.3
	c9.4,0,17.2-6.6,19.2-15.3H186c2,8.7,9.8,15.3,19.2,15.3c9.4,0,17.2-6.6,19.2-15.3h13.1c3.2,0,5.9-2.6,5.9-5.9v-48.7
	C243.3,108.6,239.7,98,232.8,90.5L232.8,90.5z M96.5,179.5c-4.4,0-8-3.6-8-8c0-4.4,3.6-8,8-8c4.4,0,8,3.6,8,8
	C104.4,176,100.9,179.5,96.5,179.5L96.5,179.5z M205.2,179.5c-4.4,0-8-3.6-8-8c0-4.4,3.6-8,8-8c4.4,0,8,3.6,8,8
	C213.1,176,209.5,179.5,205.2,179.5L205.2,179.5z M231.6,164.2h-8.2c-2.9-7.2-10-12.3-18.2-12.3c-8.2,0-15.3,5.1-18.2,12.3h-4.5
	V91.4H207c15.4,0,24.6,11.2,24.6,29.9V164.2z M231.6,164.2"/>
<path class="st1" d="M105.2,129.2c-2.3,2.3-2.3,6,0,8.3c1.1,1.1,2.6,1.7,4.2,1.7c1.5,0,3-0.6,4.2-1.7l15.2-15.2
	c0.1-0.1,0.2-0.2,0.3-0.4c0.1-0.1,0.1-0.1,0.1-0.2c0.1-0.1,0.1-0.1,0.2-0.2l0.1-0.3c0-0.1,0.1-0.1,0.1-0.2l0.1-0.3
	c0-0.1,0.1-0.1,0.1-0.2c0-0.1,0-0.2,0.1-0.3c0-0.1,0-0.2,0.1-0.2c0-0.1,0-0.2,0-0.3c0-0.1,0.1-0.2,0.1-0.3c0-0.1,0-0.2,0-0.3
	c0-0.1,0.1-0.1,0.1-0.2c0-0.4,0-0.8,0-1.2c0-0.1,0-0.1-0.1-0.2c0-0.1,0-0.2,0-0.3c0-0.1-0.1-0.2-0.1-0.3c0-0.1,0-0.2,0-0.3
	c-0.1-0.1-0.1-0.2-0.1-0.2c-0.1-0.1-0.1-0.2-0.1-0.3c-0.1-0.1-0.1-0.1-0.1-0.2l-0.1-0.3c0-0.1-0.1-0.1-0.1-0.2l-0.1-0.3
	c0-0.1-0.1-0.1-0.2-0.2c0-0.1-0.1-0.1-0.1-0.2c-0.1-0.1-0.2-0.2-0.3-0.4l-14.4-14.4c-2.3-2.3-6-2.3-8.3,0c-2.3,2.3-2.3,6,0,8.3
	l4.4,4.3H10.3c-3.2,0-5.9,2.6-5.9,5.9s2.6,5.9,5.9,5.9h99.9L105.2,129.2z M105.2,129.2"/>
<g>
</g>
<g>
</g>
<g>
</g>
<g>
</g>
<g>
</g>
<g>
</g>
<g>
</g>
<g>
</g>
<g>
</g>
<g>
</g>
<g>
</g>
<g>
</g>
<g>
</g>
<g>
</g>
<g>
</g>
</svg>
