<?xml version="1.0" encoding="utf-8"?>
<!-- Generator: Adobe Illustrator 21.0.2, SVG Export Plug-In . SVG Version: 6.00 Build 0)  -->
<svg version="1.1" id="Layer_1" xmlns="http://www.w3.org/2000/svg" xmlns:xlink="http://www.w3.org/1999/xlink" x="0px" y="0px"
	 viewBox="0 0 250 250" style="enable-background:new 0 0 250 250;" xml:space="preserve">
<style type="text/css">
	.st0{fill:#055864;}
	.st1{fill:#FF9D3A;}
</style>
<g>
	<path class="st0" d="M224.6,116.9c-0.4,2-0.9,4-1.3,5.9c-5.4,23.4-20.1,38-43.2,45.1c0.9,0.7,1.7,1.3,2.4,1.8
		c6.9,4.4,10,11.7,8.2,19.4c-1.6,7-7.7,13-15.4,13.2c-15.1,0.5-30.3,0.1-45.8,0.1c0-2.5,0-4.8,0-7.6c1.6-0.1,3.2-0.2,4.7-0.2
		c12.4,0,24.8,0,37.2,0c6.7,0,11-3.2,11.6-8.4c0.7-5.9-2.5-9.4-9.3-11.2c-21.1-5.8-42.7-6.4-64.4-5.9c-2.9,0.1-5.8-1.2-8.7-1.8
		c-1.1-0.2-2.3-0.1-3.4,0.1c-32.9,7.4-63.5-11.9-70.6-44.5c-8.3-37.8,24.4-73.9,62.7-69.2c1.9,0.2,3.8,0.5,5.7,0.9
		c2.7,0.5,5.2,1.6,7.7-0.8c0.8-0.8,2.8-0.5,4.3-0.5c11.1,0,22.1-0.2,33.2,0.1c3,0.1,6,1.4,9.1,2c1.1,0.2,2.3-0.1,3.4-0.3
		c32.6-7.4,63.4,12.2,70.5,44.8c0.5,2.1,0.9,4.3,1.3,6.4C224.6,109.9,224.6,113.4,224.6,116.9z M152.8,63.5c0,4.7,1.4,7,5.9,8.2
		c16.4,4.2,26.7,14.8,30.8,31.3c0.3,1,0.6,2.1,1.1,3.9c6.8-10,9.7-20.2,9-31.4c-0.1-0.9-0.8-1.9-1.5-2.5
		C184.8,62.2,169.8,58.8,152.8,63.5z M54.4,125.2c-0.5,0.1-1,0.2-1.5,0.3c-0.9,6.4-2.2,12.8-2.7,19.3c-0.1,2,1.3,4.9,2.9,6.2
		c14,10.6,29.5,13.1,46.3,7.8c3.1-1,4.7-2.6,4.3-6.2C83.2,151,66,143.3,54.4,125.2z M67.3,106.6c-2.6,2.9-4.9,5.1-6.7,7.7
		c-0.8,1.1-1,3.3-0.4,4.6c8.4,17.6,29.8,26.4,46.1,25.2c0.6-5.2,1.2-10.5,1.8-16.1C91.6,126.1,75.4,124.9,67.3,106.6z M104.1,71.4
		c0.2-4-1.1-6.3-4.8-7.5c-28.5-9.4-59.1,8.2-64.9,37.8c-1,5.1-0.8,10.5-1.1,15.7c0.5,0,0.9,0.1,1.4,0.1
		c3.3-15.9,11.4-28.7,24.9-37.7C73.1,70.9,88,68,104.1,71.4z M106.8,87c0-7,0-7.1-5.9-8.2C85.3,76.1,71.4,80,59.2,90.1
		c-13,10.9-20.1,29.9-16.4,44.8c3.3-15.3,10.4-27.5,22.5-36.6C77.5,89.1,91.4,85.7,106.8,87z M152.5,158.8
		c15.5,6.6,37.4,0.7,50.4-13.2c10.5-11.2,16.7-31.5,12.5-39.8c-8.7,30.8-28.9,46.8-61.3,47.1C153.6,154.8,153.1,156.7,152.5,158.8z
		 M108.2,119.7c0-7.3,0-14.1,0-21c0-2.9-1.5-3.7-4.1-3.9c-7.9-0.5-15.6,0.5-22.9,3.6c-7.3,3-7.9,6.2-2.4,12.1c0.9,1,1.9,1.9,3,2.6
		C89.8,118.2,98.7,119.4,108.2,119.7z M207.6,88.6c-0.5,0.6-0.8,0.8-0.8,1c-0.3,1-0.5,2-0.8,3c-6.2,21.8-20.4,35.7-42.1,41.8
		c-7,2-7.1,1.8-8,9c0,0.2,0.2,0.5,0.3,0.8C181.1,147.7,212.1,123,207.6,88.6z M174.7,121c8.2-3.2,9.2-5,7.7-13.3
		c-0.1-0.7-0.2-1.5-0.3-2.2c-2.8-13.7-13.8-24.8-26.1-26.1c0.4,4.4,0.7,8.8,1.4,13.1c0.3,1.5,1.5,3.4,2.8,4.1
		c5.3,2.9,9.1,7.1,11.1,12.6C172.7,113.1,173.6,117.1,174.7,121z M157.9,104.9c0,7.9,0,15.2,0,22.7c2.1-0.5,3.9-0.7,5.5-1.4
		c1.1-0.4,2.6-1.2,2.8-2.1C167.7,119.1,163.3,108.7,157.9,104.9z"/>
	<path class="st1" d="M157.7,135.1c0.4-4.1,0.6-8.2,0.7-12.3c0.5-21.2,1.2-47.7-8.6-67.3c-0.4,0-1-0.2-1.3-0.3
		c-3.4-0.7-5.1-1.7-8.8-1.8c-11.7-0.2-23.3,0.1-35-0.1c-2.4,0-3.7,2.1-6.1,2.1c0.3,1.1,0.6,2.3,0.9,3.4c2.4,9.8,5.6,18.4,6.9,28.6
		c2.8,23.6,1.5,48-5.1,70.9c-0.9,3.1-2.1,5.9-2.8,9c0-0.2,2.2,0.2,2.5,0.2c0.9,0.3,1.9,0.5,2.8,0.8c5.7,1.4,11.7,1,17.5,0.7
		c6-0.3,12.1,0.1,18.1,0.5c1,0.1,12.2,1.3,12.2,1.2C154.5,158.8,156.6,147.1,157.7,135.1z"/>
</g>
<g>
</g>
<g>
</g>
<g>
</g>
<g>
</g>
<g>
</g>
<g>
</g>
<g>
</g>
<g>
</g>
<g>
</g>
<g>
</g>
<g>
</g>
<g>
</g>
<g>
</g>
<g>
</g>
<g>
</g>
</svg>
