<?xml version="1.0" encoding="utf-8"?>
<!-- Generator: Adobe Illustrator 21.0.2, SVG Export Plug-In . SVG Version: 6.00 Build 0)  -->
<svg version="1.1" id="Layer_1" xmlns="http://www.w3.org/2000/svg" xmlns:xlink="http://www.w3.org/1999/xlink" x="0px" y="0px"
	 viewBox="0 0 250 250" style="enable-background:new 0 0 250 250;" xml:space="preserve">
<style type="text/css">
	.st0{fill:#065864;}
	.st1{fill:#FF9D3A;}
</style>
<g>
	<path class="st0" d="M177.6,239H73.9l-0.1-1.3c0-0.3-0.1-0.6-0.1-0.9c-0.1-0.6-0.1-1.1-0.1-1.7c0-4.6,0-9.2,0-13.8
		c0-11.3,0-23,0.3-34.5c0.3-9,1.1-18.4,2.4-27.9c1.2-8.4,2.7-16.9,4.2-25.1c0.8-4.4,1.6-9,2.4-13.5c2.4-14,3-26.5,1.8-38.2
		c-0.2-2.2-0.4-4.4-0.5-6.6c-0.2,1-0.5,2-0.7,3c-1.3,5.6-2.7,11.3-3.8,17c-0.6,3.2-1.2,6.5-1.6,9.7c-0.5,3.3-1,6.6-1.7,9.9
		c-1.1,5.3-2.4,10.9-4.4,18.1c-1.6,5.6-3.2,11.3-4.9,16.8c-1,3.3-1.9,6.6-2.9,9.8c-0.8,2.9-1.6,5.7-2.4,8.8
		c-0.4,1.4-0.8,2.8-1.1,4.1l-0.3,1h-2.2l-0.2,0c-1.6-0.4-3.2-0.7-4.8-1.1l-3-0.7c-0.8-0.2-1.7-0.4-2.5-0.7c-1.6-0.4-3.2-0.9-4.6-1
		l-0.5,0c-0.1,0-0.1,0-0.2,0l-1.6,0L41,169c0.1-1.3,0.2-2.5,0.3-3.8c0.3-2.9,0.5-5.9,0.9-8.8l0.6-5c1.2-9,2.4-18.4,3.9-27.5
		c1.1-6.9,2.5-12.9,4.3-18.2c3.9-11.9,6-24.8,6.4-39.2c0-1.5,0.1-3.1,0.1-4.7c0.2-8.1,0.4-16.5,1.9-24.5c1-5.5,3-9.5,5.9-12.2l0,0
		c0,0,0,0,0,0c3.2-4.6,7.7-7.7,13.5-9.2c0.5-0.1,1.8-0.7,3.1-1.2c6.2-2.6,10.4-4.1,12.2-2.4l1.3,1.3c1.2,0.6,2.3,1.2,3.4,1.8
		c3.7,2,7.3,3.9,11.7,4.6c2.7,0.4,5.4,1,8.1,1.5c2.3,0.5,5.1,2,5.5,6.8c0.3,4,0.7,8,1,12c0.2,2,0.3,3.9,0.5,5.9
		c0.1-1.1,0.1-2.1,0.2-3.2c0.3-4.5,0.6-9.2,1.1-13.8c0.6-5.4,2-6.9,7.2-7.9l1.3-0.2c5.4-1,11-2,15.9-4.8c0.1-0.1,0.3-0.1,0.4-0.2
		c0.5-0.6,1.1-1.1,1.6-1.7l-0.1,0l1.1-1.2c0.3-0.4,0.7-0.8,1-1.4l0.6-1.1l1.1,0.4c0.8,0.3,1.5,0.5,2.3,0.8c2.3,0.8,4.6,1.5,6.8,2.2
		c3.1,1,6.4,2,9.5,3.1c6.6,2.4,11.2,7.5,13.6,14.9c3,9.4,3.5,19.2,4.1,28.7l0.1,1.8c0.1,1.6,0,3.3,0,4.9c-0.1,2-0.1,3.9,0.1,5.7
		c0.1,0.8,0.2,1.6,0.3,2.4c0.4,3.2,0.7,6.6,1.4,9.7c0.8,3.6,1.7,7.3,2.6,10.9c0.9,3.8,1.9,7.6,2.8,11.5c1.6,7.1,3,14.2,4.3,21.1
		c1.2,6.9,2.3,14,3.2,20.9c0.6,4.4,1,8.9,1.3,13.2c0.1,1.7,0.3,3.4,0.5,5c0,0.5,0,0.9-0.1,1.3c0,0.1,0,0.2,0,0.3
		c-0.1,0.4-0.3,0.8-0.6,1c-1.6,1.2-15.2,1.8-15.9,1.7c-3.4-0.5-3.8-2.3-5-7l-0.2-0.7c-1.9-7.6-4.1-15-6.3-22.5
		c-0.3-1.1-0.7-2.3-1-3.4c-2.6-8.7-5.3-17.7-6.5-27l0-0.1c-0.7-5.4-1.4-11-2.5-16.4l0,0c-0.7-3.6-1.7-7.2-2.6-10.7
		c-0.5-1.7-0.9-3.5-1.4-5.2c-0.3-1.2-0.6-2.4-0.9-3.6c-0.1,1.2-0.3,2.3-0.3,3.5c-0.1,1.5-0.2,3.1-0.3,5.2c-0.2,4-0.1,8-0.1,12
		c0,2,0.1,4,0.1,6c0.3,2.2,0.5,4.5,0.7,6.7c0.4,4.2,0.9,8.5,1.5,12.7c0.7,4.4,1.6,8.8,2.4,13.1c0.7,3.5,1.4,7.2,2.1,10.9
		c2.8,16.4,4.3,31.2,4.4,45c0.2,14.9,0.3,29.7,0.4,44.6c0,0.5,0,1.1-0.1,1.7c0,0.3,0,0.6-0.1,1L177.6,239z M76.5,236.2h98.3
		c0-0.4,0-0.8,0-1.1c-0.1-14.9-0.3-29.7-0.4-44.6c-0.1-13.7-1.6-28.3-4.4-44.6c-0.6-3.6-1.3-7.2-2.1-10.8c-0.9-4.3-1.8-8.8-2.5-13.2
		c-0.7-4.3-1.1-8.6-1.5-12.8c-0.2-2.2-0.5-4.5-0.7-6.7l0-0.2c0-2,0-4-0.1-6c-0.1-4-0.1-8.1,0.1-12.1c0.1-2.1,0.2-3.7,0.3-5.3
		c0.2-2.2,0.4-4.4,0.7-6.5c0.1-0.9,0.2-1.9,0.4-2.8l0.1-1.2l3.1,0l0.3,1.1l0.7,2.8c0.5,2.1,1.1,4.2,1.6,6.3c0.4,1.7,0.9,3.4,1.4,5.2
		c1,3.5,2,7.2,2.7,10.9v0c1.1,5.5,1.8,11.1,2.5,16.6l0,0.1c1.2,9.1,3.8,18,6.4,26.6c0.3,1.1,0.7,2.3,1,3.4c2.2,7.6,4.4,15,6.3,22.7
		l0.2,0.7c1.2,4.6,1.2,4.7,2.7,4.9c1.1,0.1,10.7-0.5,13.4-1.1c0,0,0-0.1,0-0.1c-0.2-1.7-0.3-3.4-0.5-5.1c-0.4-4.3-0.8-8.8-1.3-13.1
		c-0.9-6.8-1.9-13.8-3.2-20.7c-1.2-6.8-2.6-13.9-4.2-20.9c-0.9-3.8-1.8-7.7-2.7-11.4c-0.9-3.6-1.8-7.3-2.6-11
		c-0.7-3.2-1.1-6.7-1.5-10c-0.1-0.8-0.2-1.6-0.3-2.4c-0.2-2.1-0.2-4.2-0.1-6.2c0.1-1.6,0.1-3.1,0-4.6l-0.1-1.8c-0.5-9.3-1.1-19-4-28
		c-2.1-6.6-6-11-11.8-13.1c-3.1-1.1-6.3-2.1-9.4-3.1c-2.3-0.7-4.6-1.4-6.9-2.2c-0.4-0.1-0.7-0.3-1.1-0.4l-1.5,1.7
		c-0.7,0.8-1.4,1.6-2.2,2.3c-0.3,0.3-0.7,0.5-0.9,0.5l-0.1,0c-5.3,3-11.1,4-16.7,5.1l-1.3,0.2c-4,0.7-4.5,1.3-4.9,5.4
		c-0.5,4.6-0.8,9.2-1.1,13.7c-0.2,2.4-0.3,4.8-0.5,7.2c-0.1,1.5-0.3,2.9-0.5,4.3c-0.1,0.7-0.2,1.3-0.2,2l-0.2,1.3l-3.2-0.1l-0.2-1.1
		c-0.1-0.3-0.1-0.6-0.2-0.9c-0.1-0.7-0.3-1.5-0.3-2.2c-0.4-4.4-0.7-8.7-1.1-13.1c-0.3-4-0.7-8-1-12c-0.3-3.2-2-4-3.3-4.2
		c-2.6-0.5-5.3-1.1-7.9-1.5c-4.9-0.8-8.6-2.8-12.6-4.9c-1.1-0.6-2.3-1.2-3.5-1.8l-0.2-0.1l-1.5-1.5c-1.3-0.4-7,2-9.2,2.9
		c-1.6,0.6-2.8,1.2-3.5,1.4c-5.3,1.4-9.2,4-12,8.1l-0.1,0.1l-0.3,0.3c-2.5,2.2-4.1,5.7-5,10.6c-1.4,7.8-1.6,16.1-1.8,24.1
		c0,1.6-0.1,3.1-0.1,4.7c-0.4,14.7-2.6,27.8-6.6,40c-1.7,5.2-3.1,11-4.2,17.8c-1.5,9.1-2.7,18.4-3.9,27.5l-0.6,5
		c-0.4,2.9-0.6,5.8-0.9,8.7c-0.1,0.8-0.1,1.6-0.2,2.3c1.6,0.2,3.1,0.6,4.6,1c0.8,0.2,1.6,0.4,2.4,0.6l3,0.7c1.4,0.3,2.9,0.6,4.3,1
		c0.3-1,0.6-2,0.8-3c0.8-3,1.6-5.9,2.5-8.8c1-3.3,1.9-6.6,2.9-9.9c1.6-5.5,3.3-11.2,4.9-16.8c2-7.1,3.3-12.6,4.4-17.9
		c0.7-3.2,1.2-6.6,1.7-9.8c0.5-3.2,1-6.5,1.7-9.8c1.2-5.7,2.5-11.5,3.9-17.1c0.4-1.9,0.9-3.7,1.3-5.6c0.2-0.9,0.5-1.7,0.8-2.4
		c0.1-0.3,0.2-0.7,0.4-1l0.4-1.1l3,0.4l0.1,1.2c0.1,1.3,0.2,2.6,0.3,4c0.2,2.8,0.4,5.7,0.7,8.6c1.2,11.9,0.6,24.7-1.9,38.9
		c-0.8,4.5-1.6,9.1-2.4,13.5c-1.5,8.2-3,16.6-4.2,25c-1.4,9.4-2.2,18.7-2.4,27.6c-0.3,11.4-0.3,23.1-0.3,34.4c0,4.6,0,9.2,0,13.8
		C76.5,235.5,76.5,235.8,76.5,236.2z"/>
</g>
<circle class="st1" cx="126.2" cy="63.5" r="2.9"/>
<circle class="st1" cx="126.2" cy="71.1" r="2.9"/>
<circle class="st1" cx="126.2" cy="78.3" r="2.9"/>
<g>
</g>
<g>
</g>
<g>
</g>
<g>
</g>
<g>
</g>
<g>
</g>
<g>
</g>
<g>
</g>
<g>
</g>
<g>
</g>
<g>
</g>
<g>
</g>
<g>
</g>
<g>
</g>
<g>
</g>
</svg>
