<?xml version="1.0" encoding="utf-8"?>
<!-- Generator: Adobe Illustrator 21.0.2, SVG Export Plug-In . SVG Version: 6.00 Build 0)  -->
<svg version="1.1" id="Layer_1" xmlns="http://www.w3.org/2000/svg" xmlns:xlink="http://www.w3.org/1999/xlink" x="0px" y="0px"
	 viewBox="0 0 250 250" style="enable-background:new 0 0 250 250;" xml:space="preserve">
<style type="text/css">
	.st0{fill:#FF9D3A;}
	.st1{fill:#065864;}
</style>
<g>
	<g>
		<path class="st0" d="M91.2,81.5l-3.1-5.4c-0.9-1.5-1.7-3-2.5-4.5c-6.7-12.2-12.3-22.4-18-33c-0.7-1.3-1.1-3.4-0.3-5
			c2.6-5.1,5.4-10.3,8-15.3l1.4-2.7c0.4-0.7,0.8-1,1.1-1.3c0.1-0.1,0.1-0.1,0.2-0.2l2-1.8l44.6,40.2L91.2,81.5z M72.9,35.9
			c5.7,10.5,11.3,20.7,18,32.9c0.6,1.1,1.3,2.3,1.9,3.4l22.8-19.7L80.7,21l-0.1,0.2C78.1,25.9,75.5,30.9,72.9,35.9z"/>
	</g>
	<g>
		<path class="st0" d="M155.9,81.2l-14.7-12.5c-4.7-4-9.5-8.1-14.3-12.1c-0.7-0.6-2.2-1.8-2.2-3.9c0-1.8,1.2-3.1,2.1-3.9
			c8.7-7.7,17.5-15.6,26.1-23.3l8.8-7.9c0.8-0.7,1.7-1.5,2.6-2.3l4.2-3.7l3.6,6.8c1.3,2.5,2.6,4.9,3.9,7.3l0.5,1
			c1.2,2.2,2.4,4.5,3.4,6.8c0.7,1.5,0.7,3.6-0.1,5c-3.7,6.9-7.5,13.8-11.1,20.5l-0.7,1.3c-2.5,4.5-5,9-7.4,13.5l-1.9,3.4
			c-0.1,0.2-0.3,0.5-0.5,0.8L155.9,81.2z M131.5,52.5c4.6,3.8,9.2,7.8,13.6,11.6l9.5,8.1l0.6-1.1c2.5-4.5,5-9,7.4-13.5l0.7-1.3
			c3.6-6.6,7.4-13.5,11-20.2c-1-2.2-2.2-4.3-3.3-6.4l-0.5-1c-1.3-2.4-2.5-4.8-3.9-7.3l-0.1-0.1c-0.4,0.3-0.7,0.6-1.1,0.9l-8.8,7.9
			C148.5,37.3,140,45,131.5,52.5z"/>
	</g>
	<g>
		<path class="st0" d="M160.8,118c0.9,0,1.6,0,2.3,0c11.3,0,22.6,0,34,0c1.9,0,2.5,0.4,2.5,2.4c-0.1,1.9-0.4,2.8-2.5,2.7
			c-11-0.1-22.1,0-33.1,0c-3.3,0-3.3,0-3.3-3.4C160.7,119.3,160.7,118.9,160.8,118z"/>
	</g>
	<g>
		<path class="st0" d="M123.6,48.8L78.5,8.3H123l10.8-0.2c0.2,0,0.4,0,0.6,0l2.5,0l5.2-0.1l0,0.1c5.7,0,11.4,0,17.5,0.1h0
			c0.7,0,1.3,0.2,1.6,0.4c0.1,0,0.2,0.1,0.4,0.2l4.7,1.7L123.6,48.8z M94.2,14.3l29.4,26.4l29.6-26.6c-5.4,0-10.5,0-15.8,0l-3.3,0
			l-11.1,0.2H94.2z"/>
	</g>
	<g>
		<path class="st1" d="M100.9,243c-16,0-32.3,0-49.2,0c-15.7,0-27.5-11.8-27.6-27.3C24,182.1,24,147.9,24,114.9
			c0-15.3,0-30.5,0-45.8c0-9.2,4.5-16.3,13.9-21.5c7-3.9,14.5-6,21.5-7.7c1.9-0.5,4.4,0.7,5.4,2.4c4.5,8.1,9,16.3,13.3,24.2L89.8,88
			l0.1,0c2.1-1.8,4.1-3.5,6.1-5.2l2.2-1.9c6-5.2,12.2-10.5,18.2-15.8c2.9-2.6,5.4-1.2,6.6-0.2c0.6,0.5,0.8,0.4,1.2,0.1
			c2.3-1.8,4.6-1.6,6.9,0.4c8.5,7.4,17.1,14.8,25.5,22l1,0.9l0.6-1.1c1.6-2.8,3.1-5.6,4.7-8.5l5.4-9.9c4.8-8.8,9.6-17.6,14.4-26.3
			c0.9-1.6,3.3-3,5.4-2.5c7.9,2,17,4.7,24.9,10.1c7,4.8,10.5,11.4,10.5,19.6c0,24.3,0,48.6,0,72.9l0,45.6l0.1,4.9l0.1,0l0.1,2.3
			c0,1-0.1,2.1-0.1,3.1l0.1,4.7l-0.1,0.1c0,5.9,0,11.9-0.9,17.9c-1.5,10.1-8.2,17.4-19,20.8c-2.3,0.7-4.9,1.1-8,1.1
			C165.3,243,134,243,100.9,243z M59.9,45.9c-6.3,1.6-13,3.5-19.1,6.9C33.4,56.9,30,62.1,30,69.1c0,15.3,0,30.5,0,45.8
			c0,33,0,67.1,0.1,100.7c0,12.2,9.3,21.3,21.6,21.3c51.8,0,99,0,144.2,0c2.4,0,4.5-0.3,6.2-0.8c6-1.8,13.4-6.1,14.8-15.9
			c0.8-5.7,0.8-11.6,0.8-17.4l0-1.6l0.1-0.1l0-2.7c0-0.4,0-0.8,0-1.2l-0.1-2l-0.1-7.1l0-45.6c0-24.3,0-48.6,0-72.9
			c0-6.2-2.6-11-7.9-14.7c-6.8-4.7-14.9-7.1-22-9c-4.7,8.5-9.4,17.1-14,25.6l-5.4,9.9c-1.5,2.8-3.1,5.6-4.7,8.5l-3.8,6.9l-2.7-1.8
			c-0.2-0.1-0.4-0.3-0.6-0.4c-0.5-0.3-1-0.6-1.4-1l-2.2-1.9c-8.3-7.1-16.9-14.5-25.3-21.8c-2.4,1.6-5.2,1.6-7.5,0
			c-5.9,5.2-12,10.4-17.8,15.4l-2.2,1.9c-2,1.7-4.1,3.5-6.2,5.3l-5.7,4.8l-15.3-28C68.6,61.7,64.2,53.7,59.9,45.9z M186.6,45.7
			C186.6,45.7,186.6,45.7,186.6,45.7C186.6,45.7,186.6,45.7,186.6,45.7z M123.7,218.5c-2.1,0-4-0.8-5.4-2.2
			c-1.4-1.5-2.2-3.4-2.2-5.5c0-2.1,0.8-4,2.3-5.5c1.5-1.4,3.4-2.2,5.5-2.1c4.1,0.1,7.4,3.4,7.4,7.5c0,2.1-0.8,4.1-2.2,5.5
			C127.7,217.7,125.8,218.5,123.7,218.5L123.7,218.5C123.7,218.5,123.7,218.5,123.7,218.5z M123.7,209.2c-0.5,0-0.9,0.2-1.1,0.4
			c-0.3,0.3-0.5,0.7-0.5,1.2c0,0.5,0.2,0.9,0.5,1.2c0.3,0.3,0.7,0.5,1.2,0.5c0,0,0,0,0,0h0c0.4,0,0.8-0.2,1.1-0.5
			c0.3-0.3,0.5-0.8,0.5-1.2C125.3,209.9,124.6,209.2,123.7,209.2C123.7,209.2,123.7,209.2,123.7,209.2z M123.7,181.6
			c-2,0-3.9-0.8-5.3-2.2c-1.4-1.4-2.2-3.4-2.2-5.5c0-2.1,0.8-4,2.3-5.5c1.4-1.4,3.4-2.1,5.5-2.2l0,0c2.1,0,4,0.9,5.4,2.3
			c1.4,1.5,2.2,3.4,2.1,5.5C131.2,178.3,127.9,181.5,123.7,181.6C123.8,181.6,123.7,181.6,123.7,181.6z M123.7,172.3
			c-0.6,0-0.9,0.2-1.1,0.4c-0.2,0.2-0.5,0.6-0.5,1.2c0,0.6,0.3,1,0.5,1.2c0.2,0.2,0.6,0.4,1.2,0.4c0.9,0,1.6-0.7,1.6-1.6
			c0-0.5-0.2-0.9-0.5-1.2C124.7,172.6,124.3,172.3,123.7,172.3C123.7,172.3,123.7,172.3,123.7,172.3z M179.6,166.9
			c-3.7,0-7.6,0-11.7,0c-8.7-0.1-14.5-5.9-14.5-14.6l0,0c0-8.8,0-17.7,0-26.5l0-16.3h52.9l0.2,3.5c0,0.6,0.1,1.1,0.1,1.6
			c0,4,0,7.9,0,11.9c0,8.4,0,16.7,0,25.1c0,6.6-2.5,11.3-7.5,13.9c-1.7,0.9-3.8,1.3-6.4,1.3C188.6,166.9,184.2,166.9,179.6,166.9z
			 M159.4,152.3c0,5.3,3.2,8.6,8.5,8.6c9,0.1,17.1,0.1,24.8,0c2,0,3.1-0.4,3.7-0.7c3-1.5,4.3-4.1,4.2-8.5c0-8.4,0-16.8,0-25.2
			c0-3.7,0-7.3,0-11h-41.2l0,10.3C159.4,134.6,159.4,143.5,159.4,152.3L159.4,152.3z M123.8,144.6c-4.2,0-7.6-3.4-7.6-7.6
			s3.4-7.6,7.6-7.6c4.2,0,7.6,3.4,7.6,7.6S128,144.6,123.8,144.6z M123.8,135.5c-0.9,0-1.6,0.7-1.6,1.6c0,0.9,0.7,1.6,1.6,1.6
			c0.9,0,1.6-0.7,1.6-1.6C125.3,136.2,124.6,135.5,123.8,135.5z M123.7,107.8C123.6,107.8,123.6,107.8,123.7,107.8
			c-4.3,0-7.5-3.3-7.5-7.5c0-2.1,0.8-4,2.2-5.4c1.4-1.4,3.4-2.2,5.5-2.2h0c4.2,0,7.4,3.3,7.5,7.6c0,2.1-0.8,4-2.2,5.4
			C127.7,107,125.8,107.8,123.7,107.8z M123.7,98.6c-0.5,0-0.9,0.1-1.2,0.4s-0.4,0.7-0.4,1.2c0,1,0.6,1.6,1.5,1.6
			c0.4,0,0.9-0.1,1.2-0.4c0.3-0.3,0.4-0.8,0.4-1.2C125.3,99.3,124.7,98.7,123.7,98.6C123.8,98.6,123.7,98.6,123.7,98.6z"/>
	</g>
</g>
<g>
</g>
<g>
</g>
<g>
</g>
<g>
</g>
<g>
</g>
<g>
</g>
<g>
</g>
<g>
</g>
<g>
</g>
<g>
</g>
<g>
</g>
<g>
</g>
<g>
</g>
<g>
</g>
<g>
</g>
</svg>
