<?xml version="1.0" encoding="utf-8"?>
<!-- Generator: Adobe Illustrator 21.0.2, SVG Export Plug-In . SVG Version: 6.00 Build 0)  -->
<svg version="1.1" id="Layer_1" xmlns="http://www.w3.org/2000/svg" xmlns:xlink="http://www.w3.org/1999/xlink" x="0px" y="0px"
	 viewBox="0 0 250 250" style="enable-background:new 0 0 250 250;" xml:space="preserve">
<style type="text/css">
	.st0{fill:#FF9D3A;}
	.st1{fill:#055864;}
</style>
<g>
	<path class="st0" d="M137.4,100.8c-0.9,0-1.1,0.4-1,1.3c0.7,9.1,1.5,18.2,2.2,27.3c0.4,5.2,0.7,10.4,1.2,15.7
		c0.6,7.3,1.2,14.6,1.8,22c0.4,5.4,0.8,10.9,1.2,16.3c0.5,6,0.9,12,1.4,18c0.3,3.9,0.7,7.8,1,11.7c0.2,2.3,0.4,4.6,0.5,7
		c-13.6,0-27,0-40.5,0c0.1-1.1,0.1-2.2,0.2-3.2c0.2-2.1,0.4-4.1,0.6-6.2c0.3-4.3,0.6-8.6,1-12.9c0.7-8.2,1.4-16.5,2-24.7
		c0.6-7.5,1.1-14.9,1.7-22.4c0.7-8.3,1.4-16.6,2.1-25c0.6-7.9,1.2-15.7,1.8-23.6c0.1-0.8-0.1-1.2-0.9-1.2c-1.5-0.1-3-0.1-4.6-0.2
		c-3.3,41.7-6.5,83.3-9.8,125c17.7,0,35.2,0,52.8,0c-3.3-41.7-6.5-83.3-9.8-124.8C140.3,100.8,138.8,100.8,137.4,100.8z"/>
	<path class="st0" d="M89.1,217.6c-8,0.1-16,0-24,0c-0.6,0-1.1,0-1.9-0.1c1.3-7.6,2.5-15.1,3.7-22.7l0,0l2.2-13.2l0,0
		c0-0.2,0.1-0.3,0.1-0.5c0.9-5.2,1.7-10.4,2.5-15.6c0.6-3.8,1.3-7.7,2-11.5c0.8-5.2,1.6-10.3,2.5-15.5c0.9-5.4,1.9-10.8,2.7-16.2
		c0.8-5.1,1.6-10.2,2.4-15.2c0.9-5.7,1.9-11.4,2.9-17.1c0.4-2.6,0.8-5.2,1.3-7.7c0.1-0.8-0.1-0.9-0.8-1c-1.2-0.1-2.4-0.3-3.6-0.6
		c-1-0.3-1.3,0.1-1.5,1c-0.8,5.1-1.6,10.2-2.4,15.2c-0.9,5.4-1.9,10.8-2.8,16.2c-0.8,5.1-1.6,10.2-2.4,15.2
		c-0.9,5.4-1.9,10.9-2.8,16.3c-1.1,6.5-2.1,13.1-3.2,19.7c-0.8,4.9-1.7,9.8-2.5,14.7l0,0l-0.1,0.4c-0.3,1.9-0.7,3.8-1,5.7
		c0,0.1,0,0.1,0,0.2l-0.7,4c0,0.2-0.1,0.3-0.1,0.5c0,0,0,0,0,0l-0.8,4.6c0,0,0,0.1,0,0.1c-0.4,2-0.6,4-0.9,6c-1.2,7-2.4,14-3.6,21
		c-0.1,0.6-0.1,1.2-0.1,1.9c11.4,0,22.7,0,34.2,0c0-1.4-0.1-2.7,0-4.1C90.8,217.9,90.3,217.6,89.1,217.6z"/>
	<path class="st1" d="M241.2,207.4c-1.6-5.3-3.3-10.6-5-15.9l0,0l-2.6-8.5c0,0,0,0,0,0c0,0,0,0,0,0l-1.6-5.2l0,0
		c-0.6-2-1.2-4-1.9-5.9c-1.3-4.3-2.7-8.7-4-13c-1.1-3.7-2.3-7.3-3.4-11c-1.4-4.4-2.7-8.8-4.1-13.2c-1.2-3.8-2.3-7.5-3.5-11.3
		c-1.3-4.3-2.7-8.6-4-12.9c-1.1-3.6-2.3-7.3-3.4-10.9c-1.3-4.3-2.7-8.7-4-13c-1.4-4.6-2.8-9.3-4.3-13.9c-0.1-0.4-0.3-0.8-0.4-1.2
		l-3.5-12.2c-0.1-0.7-0.2-1.3-0.2-2c-0.1-7.7,0-15.5,0-23.2c0-0.4,0-0.9,0-1.4c-46.7,0-93.2,0-139.9,0c0,0.6,0,1,0,1.5
		c0,8,0,16,0,24.1c0,0.6-0.1,1.2-0.2,1.8c-0.8,2.5-1.6,5.1-2.3,7.6c-1.4,4.6-2.8,9.3-4.3,13.9c-1.3,4.3-2.7,8.5-4,12.8
		c-1.4,4.6-2.8,9.2-4.2,13.8c-1.3,4.2-2.6,8.4-4,12.7c-1.4,4.6-2.8,9.2-4.2,13.8c-1.3,4.3-2.7,8.5-4,12.8c-1.7,5.3-3.3,10.7-4.9,16
		c-1.3,4.3-2.7,8.6-4,12.9c-1.9,6.1-3.7,12.2-5.6,18.3c-1.6,5.1-3.2,10.3-4.8,15.4c-0.4,1.2-0.7,2.4-1,3.7c0.6,0,1,0,1.4,0
		c3.6,0,7.2,0,10.8,0l0,0h2.6c0.6,0,1.3,0.1,1.9,0h8.6c0.6,0.1,1.3,0,1.9,0h7.2c2.1,0,4.2,0,6.3,0c0.7,0,1-0.2,1-0.9
		c0-1.3,0-2.7,0-4c0-0.7-0.2-1-0.9-0.9c-2,0-3.9,0-5.9,0c-0.2,0-0.4,0-0.6,0.1h-7c-0.4-0.1-0.9-0.1-1.3,0h-9.9l0,0
		c-2.7,0-5.5,0-8.3,0c0.2-0.6,0.3-1,0.4-1.4c0.8-2.6,1.7-5.3,2.5-7.9c1.6-5.3,3.3-10.7,4.9-16c1.3-4.3,2.7-8.6,4.1-12.9
		c1.7-5.4,3.3-10.8,5-16.1c1.3-4.2,2.4-8.5,4-12.7l0,0l0.1-0.2c0.1-0.2,0.1-0.3,0.2-0.5c0.2-0.6,0.4-1.1,0.5-1.6l2.2-7.4
		c0.1-0.2,0.1-0.3,0.2-0.6c1.1-3.6,2.2-7.3,3.4-10.9c1.3-4.3,2.7-8.5,4-12.8c1.4-4.6,2.8-9.2,4.2-13.8c1.3-4.3,2.7-8.5,4-12.8
		c1.7-5.3,3.3-10.7,4.9-16c0.3-1.2,0.9-1.6,2.2-1.6c42.1,0,84.2,0,126.3,0c0.3,0,0.7,0,1,0c0.7,0,1,0.2,1.2,0.9
		c0,0.2,0.1,0.3,0.1,0.5l-0.1,0.1l3.6,11c1,3.1,2,6.2,2.9,9.3c1.6,5.1,3.1,10.3,4.7,15.4c1.4,4.5,2.9,9.1,4.3,13.6
		c1.6,5.3,3.2,10.6,4.9,15.9c1.1,3.6,2.3,7.1,3.4,10.7c1.4,4.3,2.7,8.7,4,13c1.4,4.5,2.8,9,4.2,13.5c1.2,3.9,2.4,7.8,3.6,11.6l2.8,9
		c0,0,0,0,0,0c2.1,6.8,4.2,13.5,6.3,20.5c-0.6,0-1.1,0-1.6,0c-7.4,0-14.8,0-22.3,0l0,0l-10.1-0.1v6l8.7-0.1c11,0,21.9,0,32.9,0
		C242.4,211.4,241.8,209.4,241.2,207.4z M188.4,57.1c-19.6,0-39.1-0.1-58.7-0.1c-0.2,0-0.4,0-0.6,0c-0.4-0.1-0.7,0-0.9,0.1h-2.1
		c-0.2-0.1-0.4-0.1-0.6-0.1c-2.1,0.1-4.2,0.1-6.3,0.1c-18.8,0-37.6,0-56.4,0c-1.7,0-1.7,0-1.7-1.7c0-5,0-10.1,0-15.1
		c0-2.3-0.3-2.1,2-2.1c20.8,0,41.6,0,62.3,0c20.9,0,41.7,0,62.6,0c1.7,0,1.7,0,1.7,1.6c0,5.3,0,10.6,0,16
		C189.7,56.7,189.4,57.1,188.4,57.1z"/>
	<path class="st0" d="M192,208.7L192,208.7c-0.3-1.9-0.6-3.8-0.9-5.7c-0.9-5.1-1.7-10.2-2.6-15.3c-0.9-5.6-1.8-11.1-2.7-16.7
		c-1.1-6.6-2.2-13.2-3.3-19.9c-0.9-5.6-1.8-11.2-2.7-16.8c-1.1-6.7-2.2-13.3-3.3-20c-0.7-4.5-1.5-8.9-2.2-13.4
		c-0.7-4.1-1.3-8.1-1.9-12.2c-0.4-2.4-0.9-4.9-1.3-7.5c-1.3,0.2-2.4,0.5-3.5,0.7c-2.1,0.3-2.1,0.3-1.8,2.5c0,0.2,0.1,0.3,0.1,0.5
		c0.7,4,1.5,8,2.1,12c0.6,3.5,1,7.1,1.6,10.6c1.1,6.6,2.2,13.2,3.3,19.9c0.9,5.6,1.8,11.2,2.7,16.8c1.1,6.6,2.2,13.2,3.3,19.9
		c0.9,5.6,1.7,11.1,2.7,16.7c1.1,6.8,2.3,13.5,3.4,20.2c0.8,4.8,1.6,9.7,2.4,14.5c0.1,0.4,0.1,0.8,0.3,1.1l0.2,1.1l-6.5,0
		c0,0-0.1,0-0.1,0c-4.5,0-9.1,0-13.6,0c-2.2,0-4.3,0-6.5,0c-0.3,0-0.9,0.4-0.9,0.6c-0.1,1.6,0,3.3,0,5.1c5.6,0,11,0,16.4,0l0,0h13.3
		c1.5,0,3,0,4.7,0c0,0,0,0,0,0h0L192,208.7z"/>
</g>
<g>
</g>
<g>
</g>
<g>
</g>
<g>
</g>
<g>
</g>
<g>
</g>
<g>
</g>
<g>
</g>
<g>
</g>
<g>
</g>
<g>
</g>
<g>
</g>
<g>
</g>
<g>
</g>
<g>
</g>
</svg>
