<?xml version="1.0" encoding="utf-8"?>
<!-- Generator: Adobe Illustrator 21.0.2, SVG Export Plug-In . SVG Version: 6.00 Build 0)  -->
<svg version="1.1" id="Layer_1" xmlns="http://www.w3.org/2000/svg" xmlns:xlink="http://www.w3.org/1999/xlink" x="0px" y="0px"
	 viewBox="0 0 250 250" style="enable-background:new 0 0 250 250;" xml:space="preserve">
<style type="text/css">
	.st0{fill:#045963;}
	.st1{fill:#FD9B3A;}
</style>
<path class="st0" d="M171.8,6.3l-2,2.5c-0.2,0.3-20.3,25.7-46.5,38.3C95.1,34,78,9.2,77.8,9l-1.9-2.8L50.7,33.7l50,150.6l18.3-77.5
	l-10.2-20.6c2.8-5.8,10.5-21.6,14.5-29.9c0.1,0.2,0.2,0.5,0.4,0.8c1.5,3,3.7,7.2,6.4,12.4c3.6,7,7.3,14,8.7,16.7l-10.2,20.6
	l18.3,77.5l50-150.6L171.8,6.3z M103.4,85l-0.6,1.2l10.5,21.2l-13.5,57.1L56.8,35l18.5-20.3c5.3,6.9,20.9,25.3,44.4,36.6
	C116.6,57.7,108.2,75.1,103.4,85z M134.3,107.5l10.5-21.3l-0.6-1.2c-5.7-10.9-14.4-27.6-17.3-33.6c22.2-11,39.5-30,45.3-36.8
	L190.7,35l-43,129.6L134.3,107.5z"/>
<g>
	<path class="st0" d="M123.3,50.1c-0.9,2-1.8,3.9-2.7,5.9c-0.9,1.9-1.8,3.9-2.8,5.8c-0.9,1.9-1.9,3.9-2.8,5.8
		c-0.9,1.9-1.9,3.8-2.9,5.8l-2.9,5.7l-2.9,5.9l-2.6,5.6l-2.9,5.6l-1.3,2.3l-1.8-2.2l-4.9-6.2C91.2,88,89.6,86,88,83.9
		c-1.6-2.1-3.2-4.2-4.8-6.3l-2.4-3.1l-2.4-3.2l-4.7-6.3c-0.8-1.1-1.5-2.1-2.3-3.2l-2.3-3.2c-0.8-1.1-1.5-2.1-2.3-3.2l-2.3-3.2
		c-1.5-2.2-9.4-15.5-10.8-17.7c1.8,1.9,9.9,15.1,11.6,17l2.6,3c0.9,1,1.7,2,2.6,3l2.5,3c0.8,1,1.7,2,2.5,3l5,6.1l2.5,3.1l2.5,3.1
		c1.6,2,3.3,4.1,4.9,6.2c1.6,2.1,3.3,4.1,4.9,6.2l4.8,6.2l-2.8,0.2l3.1-5.6l3.1-5.6l3.2-5.6l3.2-5.6c1.1-1.9,2.1-3.7,3.2-5.5
		c1.1-1.8,2.2-3.7,3.3-5.5c1.1-1.8,2.2-3.7,3.3-5.5C121,53.7,122.2,51.9,123.3,50.1z"/>
</g>
<g>
	<path class="st0" d="M123.3,50.1c1.2,1.8,2.3,3.6,3.4,5.5c1.1,1.8,2.2,3.7,3.3,5.5c1.1,1.8,2.2,3.7,3.3,5.6
		c1.1,1.9,2.2,3.7,3.2,5.6l3.2,5.6l3.2,5.6l3.1,5.6l3.1,5.7l-2.8-0.2l4.8-6.2c1.6-2.1,3.2-4.1,4.9-6.2c1.6-2.1,3.3-4.1,4.9-6.2
		l2.5-3.1l2.5-3.1l5-6.1c0.8-1,1.7-2,2.5-3l2.5-3c0.8-1,1.7-2,2.6-3l2.6-3c1.7-2,10.8-15.3,12.6-17.3c-1.5,2.2-10.3,15.8-11.8,17.9
		l-2.3,3.2c-0.8,1.1-1.5,2.2-2.3,3.2l-2.3,3.2c-0.8,1.1-1.5,2.1-2.3,3.2l-4.7,6.3l-2.4,3.2l-2.4,3.1c-1.6,2.1-3.2,4.2-4.8,6.3
		c-1.6,2.1-3.2,4.2-4.8,6.2l-4.9,6.2l-1.6,2l-1.2-2.3l-3-5.7l-3-5.7l-2.9-5.7l-2.9-5.8c-1-1.9-1.9-3.8-2.9-5.8
		c-0.9-1.9-1.9-3.9-2.8-5.8c-0.9-1.9-1.9-3.9-2.8-5.8C125.1,54,124.2,52,123.3,50.1z"/>
</g>
<path class="st1" d="M119.4,232.8l-13.4-19.5l-9-12.9c-2.1-3-4.2-5.9-6.2-8.9l-5.6-8c-2.1-3-4.2-6-6.3-8.9l-9.2-12.9l-17.2-23.9
	c2-1.6,4.1-3.1,6.1-4.7l17.1-13.2l-2.6-1.7c-3.4-2.2-6.8-4.3-10.2-6.4l-13.2-8.3c-2.4-1.5-4.8-3-7.2-4.5l-9.1-5.7
	c1.3-4.3,2.6-8.6,3.9-12.9l1.4-4.7c1-3.2,1.9-6.3,2.8-9.5l1.3-4.5c1-3.2,1.9-6.5,2.8-9.7l4.1-14.2l-1-0.3l-4.9,14
	c-1.1,3.2-2.2,6.4-3.3,9.6l-1.5,4.5c-1.1,3.1-2.1,6.3-3.2,9.4L34,79.4c-1.6,4.7-3.1,9.4-4.7,14l-0.4,1.3l11.2,7.4
	c2.4,1.6,4.8,3.1,7.2,4.7l13.1,8.5c2.5,1.6,5,3.3,7.6,4.9l-12.2,9.4c-2.6,2-5.2,4-7.8,6l-1.7,1.3l10.6,14.5l18.7,25.5
	c2.1,2.9,4.3,5.8,6.4,8.7l5.9,8c2.2,2.9,4.3,5.8,6.5,8.7l9.5,12.6l9.5,12.6l9.6,12.5l0.9-0.6L119.4,232.8z"/>
<path class="st1" d="M192.1,129.5l-10.3-9.1c2.6-1.7,5.2-3.3,7.7-5l10.1-6.6l21.4-14l-5.1-15.3c-0.6-1.7-1.1-3.3-1.7-5
	c-1-3-2-6.1-3.1-9.1l-1.6-4.6c-1.1-3.1-2.1-6.3-3.2-9.4l-4.9-14l-1,0.3l4.1,14.2c0.9,3.1,1.8,6.2,2.7,9.3l1.4,4.9
	c0.9,3.1,1.8,6.1,2.7,9.1c0.5,1.7,1,3.4,1.5,5l3.9,12.8l-29.6,18.5c-2.7,1.7-5.4,3.4-8.1,5.1l-4.5,2.9l14.7,13
	c1.8,1.6,3.7,3.3,5.5,4.9l-8.1,11.2l-18.4,25.6c-2.1,3-4.2,5.9-6.4,8.9l-5.6,7.9c-2.1,3-4.2,6-6.3,9l-9.1,12.9l-9,13l-8.9,13
	l0.9,0.6l4.8-6.2l14.4-18.8l9.5-12.6c2.2-2.9,4.3-5.7,6.5-8.6l6-8c2.2-2.9,4.3-5.8,6.5-8.7l9.4-12.7l19.9-27.1l-1.5-1.3
	C196.8,133.6,194.5,131.6,192.1,129.5z"/>
<g>
</g>
<g>
</g>
<g>
</g>
<g>
</g>
<g>
</g>
<g>
</g>
<g>
</g>
<g>
</g>
<g>
</g>
<g>
</g>
<g>
</g>
<g>
</g>
<g>
</g>
<g>
</g>
<g>
</g>
</svg>
