<?xml version="1.0" encoding="utf-8"?>
<!-- Generator: Adobe Illustrator 21.0.2, SVG Export Plug-In . SVG Version: 6.00 Build 0)  -->
<svg version="1.1" id="Layer_1" xmlns="http://www.w3.org/2000/svg" xmlns:xlink="http://www.w3.org/1999/xlink" x="0px" y="0px"
	 viewBox="0 0 250 250" style="enable-background:new 0 0 250 250;" xml:space="preserve">
<style type="text/css">
	.st0{fill:#055864;stroke:#FFFFFF;stroke-width:0.5;stroke-miterlimit:10;}
	.st1{fill:#FF9D3A;stroke:#FFFFFF;stroke-width:0.5;stroke-miterlimit:10;}
</style>
<g>
	<path class="st0" d="M243.7,83.3c-7.8-8.7-35.2-39.4-43.6-47.8c-8.6-8.6-16.1-16.1-34.3-21.5c-18.2-5.3-62.9-5.3-81.1,0
		c-18.2,5.4-25.7,12.8-34.3,21.5c-8.4,8.4-35.8,39.1-43.6,47.8C6,84,5.7,84.9,5.8,85.9c0.1,0.9,0.5,1.8,1.2,2.4L45.1,121
		c0.7,0.6,1.7,0.9,2.7,0.8c1-0.1,1.8-0.6,2.4-1.4l7.1-9.9v116c0,1.9,1.6,3.5,3.5,3.5h128.8c1.9,0,3.5-1.6,3.5-3.5v-116l7.1,9.9
		c0.6,0.8,1.4,1.3,2.4,1.4c1,0.1,1.9-0.2,2.7-0.8l38.1-32.8c0.7-0.6,1.1-1.5,1.2-2.4C244.6,84.9,244.3,84,243.7,83.3z M203.5,113.3
		l-11.2-15.6c-0.9-1.2-2.4-1.7-3.9-1.3c-1.4,0.5-2.4,1.8-2.4,3.3v123.4H64.2V99.7c0-1.5-1-2.8-2.4-3.3c-1.4-0.5-3,0.1-3.9,1.3
		l-11.2,15.6l-32.6-28c7.4-8.3,33.1-37,41-44.9c8.3-8.3,14.8-14.9,31.4-19.7c17-5,60.2-5,77.2,0c16.5,4.9,23.1,11.4,31.4,19.7
		c7.9,7.9,33.6,36.6,41,44.9L203.5,113.3z"/>
	<path class="st1" d="M177.9,215H72.3c-1.9,0-3.5-1.6-3.5-3.5c0-1.9,1.6-3.5,3.5-3.5h105.6c1.9,0,3.5,1.6,3.5,3.5
		C181.4,213.5,179.8,215,177.9,215z"/>
	<path class="st1" d="M198.5,99c-1.2-1.5-0.9-3.7,0.5-4.9l20.2-16.1c1.5-1.2,3.7-0.9,4.9,0.5c1.2,1.5,0.9,3.7-0.5,4.9l-20.2,16.1
		C201.9,100.8,199.7,100.5,198.5,99z"/>
	<path class="st1" d="M46.6,99.6L26.3,83.5c-1.5-1.2-1.8-3.4-0.6-4.9c1.2-1.5,3.4-1.7,4.9-0.6l20.2,16.1c1.5,1.2,1.8,3.4,0.6,4.9
		C50.3,100.5,48.1,100.8,46.6,99.6z"/>
	<path class="st1" d="M125.2,58.4c-23.1,0-41.9-13.9-41.9-31.1c0-1.9,1.6-3.5,3.5-3.5c1.9,0,3.5,1.6,3.5,3.5
		c0,13.3,15.7,24.1,35,24.1c19.3,0,35-10.8,35-24.1c0-1.9,1.6-3.5,3.5-3.5c1.9,0,3.5,1.6,3.5,3.5C167.1,44.5,148.3,58.4,125.2,58.4z
		"/>
	<path class="st1" d="M125.2,44c-16.1,0-28.7-8.1-28.7-18.5c0-1.9,1.6-3.5,3.5-3.5c1.9,0,3.5,1.6,3.5,3.5c0,5.5,8.9,11.5,21.8,11.5
		s21.8-6.1,21.8-11.5c0-1.9,1.6-3.5,3.5-3.5c1.9,0,3.5,1.6,3.5,3.5C153.9,35.9,141.3,44,125.2,44z"/>
</g>
<g>
</g>
<g>
</g>
<g>
</g>
<g>
</g>
<g>
</g>
<g>
</g>
<g>
</g>
<g>
</g>
<g>
</g>
<g>
</g>
<g>
</g>
<g>
</g>
<g>
</g>
<g>
</g>
<g>
</g>
</svg>
