<?xml version="1.0" encoding="utf-8"?>
<!-- Generator: Adobe Illustrator 21.0.2, SVG Export Plug-In . SVG Version: 6.00 Build 0)  -->
<svg version="1.1" id="Layer_1" xmlns="http://www.w3.org/2000/svg" xmlns:xlink="http://www.w3.org/1999/xlink" x="0px" y="0px"
	 viewBox="0 0 250 250" style="enable-background:new 0 0 250 250;" xml:space="preserve">
<style type="text/css">
	.st0{fill:#055864;}
	.st1{fill:#FD9B3A;}
</style>
<g>
	<path class="st0" d="M192.5,238.8c-0.1-1.8-0.2-3.5-0.3-5.3l0.1,0l-0.9-15.4l0,0c-1.2-20.5-2.3-41-3.5-61.6l-0.6-10.4l-0.1,0
		c-0.3-6-0.6-12.1-0.9-18.1c-0.2-4.6-0.5-9.2-0.7-13.8c-0.5-7.7-1-15.3-1.4-23c-0.3-5.8-0.7-11.6-1-17.4l0,0l-0.5-8.7l0,0
		c-0.1-2.3-0.2-4.6-0.3-6.9c-0.6-10.9-1.3-21.8-1.9-32.7c-0.3-5.1-0.6-10.3-0.9-15.4c-0.1-1.5-0.2-3-0.4-4.5c-0.7,0-1.2,0-1.8,0
		c-28.6,0-57.2,0-85.9,0c-1.2,0-2.4,0-3.5,0h-4.3c0,0,0,0,0,0c-0.1,0-0.2,0-0.3,0h-2.3c-0.1,0-0.2,0-0.3,0c-5.1,0-10.1,0-15.2,0
		c-0.7,0-1.1,0.2-1.1,1c-0.1,1.4-0.2,2.8-0.2,4.3c-0.1,1.8-0.2,3.7-0.2,5.6l-0.5,9c0,0,0,0.1,0,0.1c-0.6,9.8-1.1,19.6-1.7,29.4
		c-0.3,5.4-0.6,10.8-0.9,16.2c-0.5,7.6-1,15.2-1.4,22.8c-0.4,6.1-0.6,12.1-0.9,18.2c-0.7,12.6-1.5,25.2-2.2,37.9
		c-0.6,10.8-1.1,21.5-1.8,32.3c0,0.2,0,0.4,0,0.6l-0.5,8.6c-0.1,0.7-0.1,1.5-0.2,2.2c0,0,0,0,0,0l-0.3,4l0.1-0.1
		c-0.2,4.9-0.5,9.7-0.8,14.6c-0.6,9.9-1.2,19.8-1.7,29.8c0,0.3,0.1,0.6,0.1,0.9c8.2,0.8,16.3,1.7,24.4,2.5c0,0,0,0,0,0l6.1,0.7l0,0
		c4,0.4,8,0.7,12,1c0.7-3.7,1.3-7.2,1.9-10.6c1-5.2,2-10.4,2.9-15.7c0.9-5.1,1.8-10.2,2.7-15.3c0.7-3.6,1.4-7.1,2-10.7
		c0.9-5,1.7-10,2.6-14.9c0.9-5.2,2-10.3,2.9-15.5c1.2-6.4,2.3-12.9,3.5-19.3c1-5.3,2-10.5,2.9-15.8c0.9-5.1,1.8-10.3,2.8-15.4
		c0.7-3.9,1.4-7.8,2.1-11.6c0.5-2.7,1-5.4,1.6-8.1c0.4,0.5,0.5,1,0.6,1.4c0.9,4.9,1.7,9.8,2.6,14.6c1.4,7.8,2.9,15.7,4.3,23.5
		c0.8,4.4,1.6,8.9,2.4,13.3c0.6,3.4,1.3,6.9,1.9,10.3c0.9,4.9,1.8,9.8,2.7,14.8c0.7,3.7,1.4,7.5,2.1,11.2c0.9,4.9,1.7,9.8,2.6,14.6
		c0.7,3.8,1.5,7.6,2.2,11.3c1.2,6.4,2.3,12.8,3.5,19.2c0.7,4.1,1.5,8.3,2.2,12.4c0.4,2,0.8,4,1.2,6.2c14.3-1.4,28.4-2.8,42.6-4.2
		C192.7,241.3,192.6,240.1,192.5,238.8z M75.8,9.5L75.8,9.5c0,0,4.2,0.1,4.2,0h5.1c0.2,0,0.4,0,0.6,0c10.9,0,21.8,0,32.7-0.1
		c1.2,0,1.5,0.4,1.5,1.5c-0.1,3.2,0,6.5,0,9.7c0,1.8,0,1.8-1.8,1.8c-15.8,0-31.5,0-47.3,0c-0.2,0-0.4,0-0.4,0s-1.9-0.1-2.3-0.8
		c-0.6-1.1-0.3-4.5-0.3-4.5c0-0.1,0-0.3,0-0.4l0.1-1.2c0.2-2,0.3-4,0.5-6.2C70.9,9.5,73.4,9.5,75.8,9.5z M119.9,62.3
		c0,0.5,0,1,0,1.4c-0.1,0.1-0.3,0.2-0.4,0.3c-1.2-1-2.4-1.9-3.4-2.9c-5.2-4.9-7.9-10.9-7.7-18.2c0.1-5,0.1-9.9,0-14.9
		c0-1.2,0.4-1.6,1.6-1.6c2.9,0.1,5.8,0.1,8.7,0c1.1,0,1.4,0.4,1.4,1.4c-0.1,6.4-0.1,12.8-0.1,19.2C119.9,52.1,119.9,57.2,119.9,62.3
		z M67.1,30.3c0.1-1.2,0.1-2.2,0.3-3.2c0.1-0.3,0.8-0.6,1.2-0.6c4.3,0,8.5,0,12.8,0c0.9,0,1.8,0,3.1,0c-1,2.9-2.2,5.4-3.8,7.7
		c-0.1,0-0.2-0.1-0.4-0.1c0-1.2,0-2.4,0-3.7C75.9,30.3,71.6,30.3,67.1,30.3z M66.3,45.1c0.2-3.1,0.3-6.3,0.4-9.4
		c0-1,0.3-1.4,1.4-1.4c2.6,0.1,5.3,0,8.1,0c0,2,0,3.9,0,5.8c0,0.2-0.1,0.3-0.2,0.5c-2.8,3-5.7,5.8-9.2,8.1c-0.1,0.1-0.3,0.1-0.8,0.4
		C66.1,47.6,66.2,46.3,66.3,45.1z M119.4,84c-0.3,1.5-0.5,3-0.8,4.4c-0.6,3.6-1.3,7.2-1.9,10.9c-0.7,3.6-1.4,7.2-2.1,10.8
		c-0.7,3.7-1.3,7.5-2,11.2c-0.7,3.6-1.4,7.1-2,10.7c-0.9,5.1-1.8,10.1-2.7,15.2c-0.7,3.7-1.4,7.3-2.1,11c-0.7,3.6-1.2,7.2-1.9,10.7
		c-0.7,3.7-1.4,7.4-2.1,11.1c-0.9,5.1-1.8,10.1-2.7,15.2c-0.7,3.6-1.4,7.2-2.1,10.8c-1.2,6.4-2.3,12.7-3.4,19.1
		c-1,5.5-2.1,11.1-3,16.6c-0.1,0.8-0.5,1-1.2,0.9c-5.7-0.6-11.4-1.1-17.1-1.7c-4.7-0.5-9.4-0.9-14.2-1.4c-0.9-0.1-1.8-0.2-2.8-0.4
		c0-0.4,0-0.7,0-0.9c0.3-6.4,0.6-12.8,1-19.1c0.4-7.9,0.8-15.8,1.4-23.7l0,0l0-0.5c0-0.6,0.1-1.2,0.1-1.8c0-0.2,0-0.3,0-0.5
		l0.6-11.1c0.1-0.6,0.1-1.1,0.1-1.7c0-1.3,0.1-2.6,0.2-3.9c0.5-7.5,1-15,1.4-22.6c0.4-6.2,0.6-12.4,1-18.6
		c0.6-11.2,1.3-22.3,1.9-33.5c0.4-7.7,0.8-15.3,1.3-23c0.4-7.5,1-15,1.4-22.4c0.1-1.3,0.4-2,1.6-2.7c9.9-6.1,16.9-14.6,21-25.6
		c0.3-0.8,0.7-1.1,1.6-1.1c4.4,0,8.9,0,13.3,0c1,0,1.2,0.4,1.2,1.3c0,5.5,0,10.9,0,16.4c0,4.6,1.1,8.8,3.3,12.8
		c2.7,4.9,6.7,8.6,11.3,11.6c0.4,0.3,0.9,0.9,0.9,1.3C119.7,74.6,120.5,79.3,119.4,84z M176.6,27.5c0.4,6.9,0.8,13.9,1.1,20.8
		c0,0.1-0.1,0.2-0.2,0.5c-8.2-5.6-14.1-12.9-17.9-22.2c0.5-0.1,0.9-0.2,1.2-0.2c4.8,0,9.6,0,14.4,0C176,26.5,176.5,26.6,176.6,27.5z
		 M123.9,10.7c0-0.3,0.1-0.7,0.1-1.2c0.6,0,1.1,0,1.6,0c12.7,0,25.5,0,38.2,0c3.5,0,6.9,0,10.4,0c1.1,0,1.4,0.4,1.4,1.4
		c0.1,3.5,0.3,6.9,0.5,10.4c0.1,1.1-0.3,1.4-1.3,1.3c-7.1,0-14.3,0-21.4,0c-9.3,0-18.5,0-27.8,0c-1.3,0-1.8-0.4-1.7-1.7
		C124,17.5,123.9,14.1,123.9,10.7z M186.7,239.4c-3.7,0.4-7.4,0.6-11.1,1c-7,0.7-14,1.4-21,2.2c-0.8,0.1-1.2-0.2-1.3-1
		c-0.4-2.5-0.8-5-1.3-7.5c-1-5.1-2-10.3-2.9-15.4c-1.4-7.8-2.8-15.6-4.2-23.4c-1.2-6.7-2.6-13.5-3.8-20.2
		c-1.4-7.8-2.7-15.5-4.2-23.3c-1.2-6.4-2.4-12.7-3.5-19.1c-1.1-6-2.2-11.9-3.3-17.9c-0.6-3.3-1.2-6.6-1.8-9.9c-0.9-5-1.8-10-2.7-15
		c-0.8-4.3-1.7-8.5-1.6-12.9c0.2-8.6,0.1-17.2,0.1-25.8V46c0-0.2,0-0.5,0-0.8c0-5.6-0.1-11.3-0.1-16.9c0-1.9,0-1.9,1.9-1.9
		c8.8,0,17.6,0.1,26.4-0.1c2.2,0,3.8,0.2,4.2,2.7c0,0.3,0.3,0.6,0.4,0.8c4.3,9.9,11.1,17.6,20.2,23.2c0.8,0.5,1.1,1,1.2,1.9
		c0.5,9.2,1,18.4,1.5,27.6c0.4,7.9,0.9,15.9,1.3,23.8c0.8,14.1,1.6,28.2,2.4,42.3c0,0.5,0.1,1,0.1,1.5l0.5,8.3l0,0
		c1.1,20.3,2.3,40.6,3.4,60.9l0.8,15.8l0.1,0c0.1,0.7,0.1,1.4,0.2,2.1C188.6,239.2,188.5,239.3,186.7,239.4z"/>
	<path d="M113.3,20c2.4,0,4.2-1.7,4.2-4c0-2.3-1.8-4-4.1-4.1c-2.5-0.1-4.2,2-4.2,4C109.1,18.1,111,20,113.3,20z"/>
	<path class="st1" d="M159.6,26.7c0.5-0.1,0.9-0.2,1.2-0.2c4.7,0,10.5,0.1,15.2,0.1c-0.3-1.3-0.2-2.9-0.2-4.2c0,0-1,0.1-1.1,0.1
		c-7.1,0-14.3,0-21.4,0c-9.3,0-18.5,0-27.8,0c-1.3,0-1.8-0.4-1.7-1.7c0.1-3.4,0-6.7,0-10.1c0-0.2,0.1-1,0.2-1.2c-1.4,0-3.5,0-4.8,0
		c0.9,0.4,0.7,1.1,0.7,1.4c-0.1,3.2,0,6.5,0,9.7c0,1.8,0,1.8-1.8,1.8c-15.8,0-31.5,0-47.3,0c-0.2,0-0.9,0-1.2-0.1
		c-0.3-0.1-0.8-0.3-1.1-0.3c0,1.4-0.2,3.2-0.3,4.5c3.8,0,9.3-0.1,13.1-0.1c0.9,0,1.8,0,3.1,0c-1,2.9-2.2,5.4-3.8,7.7
		c-0.1,0-0.2-0.1-0.4-0.1v-3.7l-13.1,0c0,1.3-0.1,3.3-0.3,4.6c0.4-0.5,0.6-0.6,1.8-0.6c2.4,0.1,5.3,0,7.6,0c0,2,0,3.9,0,5.8
		c0,0.2-0.1,0.3-0.2,0.5c-2.8,3-5.7,5.8-9.2,8.1c-0.1,0-0.7,0.3-0.8,0.4c-0.1,1.3,0,2.2,0,3.6c0,0.6-0.1,1.3-0.1,1.9
		c0.2-0.5,0.6-0.9,1.3-1.4c9.9-6.1,16.9-14.6,21-25.6c0.3-0.8,0.7-1.1,1.6-1.1c4.4,0,8.9,0,13.3,0c1,0,1.2,0.4,1.2,1.3
		c0,5.5,0,10.9,0,16.4c0,4.6,1.1,8.8,3.3,12.8c2.7,4.9,6.7,8.6,11.3,11.6c0.4,0.3,0.9,0.9,0.9,1.3c-0.1,2.8,0.1,5.5,0.1,8.3
		c1.3-0.2,2.6-0.2,3.9-0.2c0-0.3,0-0.6,0-0.8c0.2-8.6,0.1-17.2,0.1-25.8V46c0-0.2,0-0.5,0-0.8c0-5.6-0.1-11.3-0.1-16.9
		c0-1.9,0-1.9,1.9-1.9c8.8,0,17.6,0.1,26.4-0.1c2.2,0,3.8,0.2,4.2,2.7c0,0.3,0.3,0.6,0.4,0.8c4.3,9.9,11.1,17.6,20.2,23.2
		c0,0,0.9,0.7,0.9,0.7c0-1.8-0.1-3.3-0.3-5.1C169.3,43.4,163.2,35.5,159.6,26.7z M119.9,62.3c0,0.5,0,1,0,1.4l-0.4,0.3
		c-1.2-1-2.4-1.9-3.4-2.9c-5.2-4.9-7.9-10.9-7.7-18.2c0.1-5,0.1-9.9,0-14.9c0-1.2,0.4-1.6,1.6-1.6c2.9,0.1,5.8,0.1,8.7,0
		c1.1,0,1.4,0.4,1.4,1.4c-0.1,6.4-0.1,12.8-0.1,19.2C119.9,52.1,119.9,57.2,119.9,62.3z"/>
	<path class="st1" d="M113.1,20.1c2.4,0,4.2-1.7,4.2-4c0-2.3-1.8-4-4.1-4.1c-2.5-0.1-4.2,2-4.2,4C108.9,18.2,110.8,20,113.1,20.1z"
		/>
</g>
<g>
</g>
<g>
</g>
<g>
</g>
<g>
</g>
<g>
</g>
<g>
</g>
<g>
</g>
<g>
</g>
<g>
</g>
<g>
</g>
<g>
</g>
<g>
</g>
<g>
</g>
<g>
</g>
<g>
</g>
</svg>
