<?xml version="1.0" encoding="utf-8"?>
<!-- Generator: Adobe Illustrator 21.0.2, SVG Export Plug-In . SVG Version: 6.00 Build 0)  -->
<svg version="1.1" id="Layer_1" xmlns="http://www.w3.org/2000/svg" xmlns:xlink="http://www.w3.org/1999/xlink" x="0px" y="0px"
	 viewBox="0 0 574 169" style="enable-background:new 0 0 574 169;" xml:space="preserve">
<style type="text/css">
	.st0{fill:#808184;}
	.st1{fill-rule:evenodd;clip-rule:evenodd;fill:#808080;}
	.st2{clip-path:url(#SVGID_2_);}
	.st3{fill:#6D6E70;}
	.st4{clip-path:url(#SVGID_4_);}
	.st5{fill-rule:evenodd;clip-rule:evenodd;fill:#4D4D4D;}
</style>
<g>
	<g>
		<path class="st0" d="M51.4,110.7v-6.6l0.5,0c19.4-1.1,41.5-11,52.8-23.4c11.4-12.6,15.2-29,10.4-44.9c-3.2-10.5-9-15.2-12.1-17.7
			c-1.4-1.2-2.1-1.7-2.1-2.5c0-0.2,0.1-0.6,0.5-0.8c2.3-1.5,6.7-1.6,9.2-0.1c1.4,0.8,2.3,1.2,3,1.2c0.4,0,0.8-0.2,1.2-0.5
			c1.2-1.2,2.4-1.8,6.3-1.3c1.6,0.2,2.6,0.8,3.2,1.8c0.6,1.2,0.3,2.7-0.2,3.7c-0.5,0.9-0.8,2.4-0.4,3c0.1,0.1,0.3,0.5,1.2,0.4
			c0.3,0,0.5-0.2,0.7-0.4c1-1.3,0.5-4.8,0.3-6.1l-0.1-0.4l0.3-0.2c1.4-0.9,2.9-1.4,4.4-1.4c3.5,0,6.3,2.3,7.1,3.1
			c1.2-0.3,2.4-0.5,3.5-0.5c3.6,0,6.6,1.6,8.3,4.4c1.3,2.1,2.6,2.6,3.6,2.6c0.4,0,0.7-0.1,0.8-0.1l0.2,0c1.3,0,3.4,4,3.4,4
			c0.3,0.6,0.4,1.3,0.1,2c-0.1,0.2-0.2,0.4-0.3,0.7h0c0.1,0,0.2,0,0.4,0c5.5,0,7.6,6.2,7.8,7.8c0.2,1.6,1.8,2.7,1.8,2.7
			c5.2,5.5,3,10.2,2.9,10.4l-0.2,0.4l-0.4-0.1c0,0-3-0.5-8.2-0.5c-4.1,0-8.4,0.3-12.9,0.9c-13.3,1.8-23.8,10.3-39.9,32.4
			c-16.4,22.5-56.4,26.3-56.8,26.4L51.4,110.7z M52.5,105.1v4.4c5.1-0.6,40.4-5.3,55.4-25.8c16.4-22.4,27-31.1,40.7-32.9
			c4.5-0.6,8.9-0.9,13-0.9c4.2,0,6.9,0.3,7.9,0.5c0.4-1.1,1-4.7-2.8-8.7l0,0c0,0-1.9-1.3-2.1-3.4c-0.2-1.8-2.2-6.6-6.5-6.8
			c-0.1,1.3-0.6,4.7-3.6,5.5c-0.1,0-0.2,0-0.4,0c-0.6,0-1.6-0.1-2.1-0.9c-0.4-0.6-0.4-1.5,0.1-2.6c0.1-0.2,0.5-0.9,2.3-1.8
			c1.2-0.6,2.1-1.5,2.4-2.4c0.1-0.4,0.1-0.8-0.1-1.1c-0.8-1.6-2-3.1-2.4-3.4c-0.8,0.2-3.5,0.6-5.6-3c-2-3.3-6.3-4.7-10.8-3.4
			l-0.3,0.1l-0.2-0.2c0,0-2.9-3-6.6-3c-1.2,0-2.4,0.3-3.5,1c0.2,1.3,0.7,4.9-0.6,6.6c-0.4,0.5-0.9,0.8-1.5,0.9
			c-1.4,0.2-2-0.4-2.3-0.9c-0.8-1.2-0.1-3.2,0.3-4.1c0.4-0.7,0.6-1.8,0.2-2.6c-0.4-0.6-1.1-1-2.3-1.2c-3.7-0.4-4.6,0.2-5.4,1
			c-1.3,1.3-2.6,1.3-5.5-0.4c-2.3-1.3-6.1-1.2-8.1,0c0.1,0.2,0.9,0.9,1.7,1.5c3,2.4,9.2,7.5,12.4,18.3c4.9,16.3,1.1,33-10.6,46
			C94.2,93.9,72,103.8,52.5,105.1z M157,31.1c-0.6,0.7-1.4,1.3-2.1,1.6c-1.4,0.7-1.7,1.3-1.7,1.3c-0.3,0.7-0.3,1.2-0.2,1.5
			c0.3,0.4,1,0.4,1.2,0.4c0.1,0,0.2,0,0.2,0C156.7,35.1,157,31.9,157,31.1z"/>
	</g>
	<g>
		<path class="st1" d="M52,104.6v5.5c0,0,40-3.6,56.4-26.1c16.4-22.5,27-30.9,40.3-32.7c13.3-1.8,21.2-0.4,21.2-0.4s2.1-4.5-2.7-9.7
			c0,0-1.7-1.2-2-3.1c-0.3-1.8-2.4-7.5-7.6-7.3c0,0,0.1,4.6-3.2,5.5c0,0-3.1,0.3-1.8-2.7c0,0,0.3-0.6,2-1.5c1.8-0.9,3.4-2.7,2.6-4.3
			c-0.8-1.6-2.4-3.9-3-3.7c-0.6,0.2-3,0.7-5.1-2.7c-2-3.4-6.4-5.1-11.5-3.6c0,0-5.4-5.6-11.1-1.9c0,0,1.3,6.9-1.5,7.2
			c-2.8,0.3-2.1-2.9-1.4-4.2c0.7-1.3,1.2-4.2-2.6-4.6c-3.8-0.4-4.8,0.1-5.9,1.2c-1,1.1-2.2,1-4.8-0.5c-2.6-1.5-6.5-1.3-8.7,0.1
			c-2.1,1.4,9,4.3,13.9,20.4c4.9,16.1,1,32.7-10.5,45.4C93.7,93.7,71.3,103.5,52,104.6z"/>
	</g>
	<g>
		<defs>
			<path id="SVGID_1_" d="M52,104.6v5.5c0,0,40-3.6,56.4-26.1c16.4-22.5,27-30.9,40.3-32.7c13.3-1.8,21.2-0.4,21.2-0.4
				s2.1-4.5-2.7-9.7c0,0-1.7-1.2-2-3.1c-0.3-1.8-2.4-7.5-7.6-7.3c0,0,0.1,4.6-3.2,5.5c0,0-3.1,0.3-1.8-2.7c0,0,0.3-0.6,2-1.5
				c1.8-0.9,3.4-2.7,2.6-4.3c-0.8-1.6-2.4-3.9-3-3.7c-0.6,0.2-3,0.7-5.1-2.7c-2-3.4-6.4-5.1-11.5-3.6c0,0-5.4-5.6-11.1-1.9
				c0,0,1.3,6.9-1.5,7.2c-2.8,0.3-2.1-2.9-1.4-4.2c0.7-1.3,1.2-4.2-2.6-4.6c-3.8-0.4-4.8,0.1-5.9,1.2c-1,1.1-2.2,1-4.8-0.5
				c-2.6-1.5-6.5-1.3-8.7,0.1c-2.1,1.4,9,4.3,13.9,20.4c4.9,16.1,1,32.7-10.5,45.4C93.7,93.7,71.3,103.5,52,104.6z"/>
		</defs>
		<clipPath id="SVGID_2_">
			<use xlink:href="#SVGID_1_"  style="overflow:visible;"/>
		</clipPath>
		<g class="st2">
			<g>
				<path class="st3" d="M119.8,59.4c-0.1,0-0.1,0-0.2-0.1c-0.1-0.1-0.1-0.3,0-0.4c0.7-0.7,4.2-10.9,3.5-16.2
					c-0.7-5.3-0.5-14.1-0.5-14.2c0-0.2,0.1-0.3,0.3-0.3h0c0.2,0,0.3,0.1,0.3,0.3c0,0.1-0.1,8.9,0.5,14.1c0.7,5.2-2.7,15.7-3.7,16.6
					C119.9,59.3,119.9,59.4,119.8,59.4z"/>
			</g>
			<g>
				<path class="st3" d="M122.9,60.1c-0.1,0-0.2-0.1-0.3-0.2c-0.1-0.1,0-0.3,0.2-0.4c1.1-0.5,2.8-4.2,3.3-5.6
					c3.9-8.2,12.8-25.1,12.9-25.3c0.1-0.1,0.2-0.2,0.4-0.1c0.1,0.1,0.2,0.2,0.1,0.4c-0.1,0.2-8.9,17.1-12.9,25.2
					c-0.2,0.5-2.1,5.3-3.6,5.9C123,60.1,123,60.1,122.9,60.1z"/>
			</g>
			<g>
				<path class="st3" d="M124.2,61.1c-0.1,0-0.1,0-0.2-0.1c-0.1-0.1-0.1-0.3,0-0.4c0.7-0.7,16.6-16.9,26.2-16.9c0.1,0,0.3,0,0.4,0
					c0.2,0,0.3,0.1,0.3,0.3c0,0.1-0.1,0.3-0.3,0.3c0,0,0,0,0,0c-0.1,0-0.3,0-0.4,0c-9.4,0-25.7,16.6-25.8,16.8
					C124.3,61.1,124.2,61.1,124.2,61.1z"/>
			</g>
			<g>
				<path class="st3" d="M125.9,64.2c-0.1,0-0.2-0.1-0.3-0.2c-1.5-6-10-4.9-10.1-4.9c-0.1,0-0.3-0.1-0.3-0.2c0-0.2,0.1-0.3,0.2-0.3
					c0.1,0,9.1-1.2,10.7,5.3C126.2,64,126.1,64.2,125.9,64.2C125.9,64.2,125.9,64.2,125.9,64.2z"/>
			</g>
		</g>
	</g>
	<g>
		<path class="st0" d="M151.7,110.6l-0.6-0.1c-0.4,0-40.4-3.8-56.9-26.2C78,62.2,67.6,53.7,54.2,51.9c-4.4-0.6-8.6-0.9-12.6-0.9
			c-5.3,0-8.4,0.5-8.4,0.5l-0.4,0.1l-0.2-0.4c-0.1-0.2-2.2-4.9,2.8-10.3c0.1-0.1,1.6-1.2,1.9-2.8c0.2-1.5,2.3-7.8,7.8-7.8
			c0.1,0,0.2,0,0.3,0h0c-0.1-0.2-0.2-0.4-0.3-0.7c-0.2-0.7-0.2-1.4,0.1-2c0,0,2.1-4,3.4-4l0.2,0c0.1,0,0.4,0.1,0.8,0.1
			c0.9,0,2.3-0.4,3.6-2.6c2.2-3.7,6.8-5.3,11.8-4c0.8-0.8,3.6-3.1,7.1-3.1c1.5,0,3,0.5,4.4,1.3l0.3,0.2l-0.1,0.4
			c-0.2,1.3-0.7,4.8,0.3,6.1c0.2,0.3,0.4,0.4,0.7,0.4c0.1,0,0.2,0,0.3,0c0.7,0,0.9-0.3,0.9-0.4c0.4-0.6,0.1-2-0.4-3
			c-0.5-1-0.8-2.5-0.2-3.7c0.5-1,1.6-1.6,3.2-1.8c3.9-0.4,5.2,0.1,6.3,1.3c0.4,0.4,0.7,0.5,1.2,0.5c0.7,0,1.6-0.4,3-1.2
			c2.6-1.5,6.9-1.4,9.2,0.1c0.4,0.3,0.5,0.6,0.5,0.8c0,0.7-0.7,1.3-2.1,2.5c-3.1,2.6-8.9,7.3-12,17.8c-4.8,15.9-1,32.2,10.5,44.9
			c11.2,12.4,33.5,22.3,52.8,23.3l0.5,0L151.7,110.6z M41.6,50c4.1,0,8.4,0.3,12.8,0.9c13.7,1.8,24.3,10.4,40.7,32.8
			c15,20.6,50.4,25.2,55.5,25.7l0-4.4c-19.5-1.2-41.7-11.1-53.1-23.6C85.8,68.4,81.9,51.7,86.8,35.4c3.2-10.8,9.4-15.9,12.4-18.3
			c0.8-0.6,1.6-1.3,1.7-1.6c-1-0.6-2.5-0.9-4.1-0.9c-1.5,0-2.9,0.3-4,1c-1.6,0.9-2.7,1.3-3.6,1.3c-0.7,0-1.4-0.3-2-0.9
			c-1-1-2-1.4-5.4-1c-1.2,0.1-2,0.5-2.3,1.2c-0.4,0.8-0.2,1.9,0.2,2.6c0.4,0.9,1.1,2.9,0.3,4.1c-0.3,0.5-1,1.1-2.3,0.9
			c-0.6-0.1-1.1-0.4-1.5-0.9c-1.2-1.7-0.8-5.3-0.6-6.6c-1.1-0.7-2.3-1-3.5-1c-3.6,0-6.5,2.9-6.6,3l-0.2,0.2l-0.3-0.1
			c-4.6-1.3-8.9,0-10.8,3.4c-2.1,3.5-4.8,3.2-5.6,3c-0.4,0.3-1.7,1.9-2.4,3.4C46,28.6,46,29,46.2,29.4c0.3,0.9,1.2,1.8,2.4,2.4
			c1.8,0.9,2.2,1.6,2.3,1.8c0.5,1,0.5,1.9,0.1,2.5c-0.5,0.8-1.5,0.9-2.1,0.9c-0.2,0-0.3,0-0.3,0c-3-0.8-3.6-4.2-3.7-5.5
			c-4.2,0.2-6.2,5-6.5,6.8c-0.3,2-2.1,3.4-2.2,3.4c-3.7,4-3.1,7.5-2.7,8.6C34.5,50.3,37.3,50,41.6,50z M45.9,31.2
			c0,0.8,0.3,4,2.7,4.8c0,0,0.1,0,0.1,0c0.2,0,0.9,0,1.2-0.4c0.2-0.3,0.1-0.8-0.2-1.5l0,0c0,0-0.3-0.5-1.7-1.2
			C47.3,32.4,46.5,31.9,45.9,31.2z"/>
	</g>
	<g>
		<path class="st1" d="M151.1,104.5l0,5.5c0,0-40-3.5-56.5-26C78.2,61.5,67.6,53.1,54.3,51.4c-13.3-1.8-21.2-0.3-21.2-0.3
			s-2.1-4.5,2.7-9.7c0,0,1.7-1.2,2-3.1c0.2-1.8,2.4-7.5,7.6-7.3c0,0-0.1,4.6,3.2,5.5c0,0,3.1,0.3,1.7-2.7c0,0-0.2-0.6-2-1.5
			c-1.8-0.9-3.4-2.7-2.6-4.3c0.8-1.6,2.4-3.9,3-3.7c0.6,0.2,3,0.7,5.1-2.7c2-3.4,6.4-5.1,11.5-3.6c0,0,5.4-5.6,11.1-1.9
			c0,0-1.3,6.9,1.5,7.2c2.8,0.3,2.1-2.9,1.4-4.2c-0.7-1.3-1.2-4.2,2.5-4.6c3.8-0.4,4.9,0.1,5.9,1.1c1,1.1,2.2,1,4.8-0.5
			c2.6-1.5,6.5-1.3,8.7,0c2.2,1.4-9,4.4-13.8,20.4C82.5,51.7,86.5,68.3,97.9,81C109.4,93.7,131.8,103.4,151.1,104.5z"/>
	</g>
	<g>
		<defs>
			<path id="SVGID_3_" d="M151.1,104.5l0,5.5c0,0-40-3.5-56.5-26C78.2,61.5,67.6,53.1,54.3,51.4c-13.3-1.8-21.2-0.3-21.2-0.3
				s-2.1-4.5,2.7-9.7c0,0,1.7-1.2,2-3.1c0.2-1.8,2.4-7.5,7.6-7.3c0,0-0.1,4.6,3.2,5.5c0,0,3.1,0.3,1.7-2.7c0,0-0.2-0.6-2-1.5
				c-1.8-0.9-3.4-2.7-2.6-4.3c0.8-1.6,2.4-3.9,3-3.7c0.6,0.2,3,0.7,5.1-2.7c2-3.4,6.4-5.1,11.5-3.6c0,0,5.4-5.6,11.1-1.9
				c0,0-1.3,6.9,1.5,7.2c2.8,0.3,2.1-2.9,1.4-4.2c-0.7-1.3-1.2-4.2,2.5-4.6c3.8-0.4,4.9,0.1,5.9,1.1c1,1.1,2.2,1,4.8-0.5
				c2.6-1.5,6.5-1.3,8.7,0c2.2,1.4-9,4.4-13.8,20.4C82.5,51.7,86.5,68.3,97.9,81C109.4,93.7,131.8,103.4,151.1,104.5z"/>
		</defs>
		<clipPath id="SVGID_4_">
			<use xlink:href="#SVGID_3_"  style="overflow:visible;"/>
		</clipPath>
		<g class="st4">
			<g>
				<path class="st3" d="M83.2,59.4c-0.1,0-0.1,0-0.2-0.1c-1-1-4.3-11.4-3.7-16.6c0.6-5.2,0.5-14.1,0.5-14.1c0-0.2,0.1-0.3,0.3-0.3
					h0c0.2,0,0.3,0.1,0.3,0.3c0,0.1,0.2,9-0.5,14.2c-0.7,5.3,2.8,15.5,3.5,16.2c0.1,0.1,0.1,0.3,0,0.4
					C83.3,59.4,83.3,59.4,83.2,59.4z"/>
			</g>
			<g>
				<path class="st3" d="M80.1,60.1c0,0-0.1,0-0.1,0c-1.6-0.6-3.4-5.4-3.7-5.9c-3.9-8.1-12.8-25-12.9-25.2c-0.1-0.1,0-0.3,0.1-0.4
					c0.1-0.1,0.3,0,0.4,0.1c0.1,0.2,9,17.1,12.9,25.2c0.6,1.4,2.2,5.2,3.4,5.6c0.1,0.1,0.2,0.2,0.2,0.4
					C80.3,60.1,80.2,60.1,80.1,60.1z"/>
			</g>
			<g>
				<path class="st3" d="M78.8,61.2c-0.1,0-0.1,0-0.2-0.1c-0.2-0.2-16.4-16.7-25.9-16.7c-0.1,0-0.3,0-0.4,0c0,0,0,0,0,0
					c-0.1,0-0.3-0.1-0.3-0.3c0-0.2,0.1-0.3,0.3-0.3c0.1,0,0.3,0,0.4,0c9.7,0,25.6,16.2,26.3,16.9c0.1,0.1,0.1,0.3,0,0.4
					C79,61.1,78.9,61.2,78.8,61.2z"/>
			</g>
			<g>
				<path class="st3" d="M77.1,64.2C77.1,64.2,77.1,64.2,77.1,64.2c-0.2,0-0.3-0.2-0.3-0.3c1.6-6.5,10.6-5.3,10.7-5.3
					c0.2,0,0.3,0.2,0.2,0.3c0,0.1-0.1,0.2-0.3,0.2c0,0,0,0,0,0c-0.1,0-8.6-1.1-10.1,4.9C77.4,64.2,77.2,64.2,77.1,64.2z"/>
			</g>
		</g>
	</g>
	<g>
		<path class="st5" d="M68.9,144.6l19.6,0l11.1-40.4l30.7,0l-11.1,40.4l19.6,0l11.2-40.5l48.5-0.1c4.5,0,9.1-3.7,10.3-8.1l8.9-32.4
			c1.2-4.5-1.4-8.1-5.9-8.1l-48.4,0l0-0.1l-19.6,0l-8.1,29.5l-30.7,0l8.1-29.5l-19.6,0L68.9,144.6L68.9,144.6z M162.8,71.2l28.2,0
			l-3.5,14l-28.2,0L162.8,71.2z"/>
	</g>
	<g>
		<polygon class="st5" points="289.8,144.3 309.4,144.3 334,55 314.4,55 		"/>
	</g>
	<g>
		<polygon class="st5" points="320,144.3 339.6,144.3 358.8,74.3 386.5,74.3 367.2,144.2 386.8,144.2 411.4,54.9 397.5,54.9 
			391.8,54.9 364.2,55 348.4,55 344.6,55 		"/>
	</g>
	<g>
		<polygon class="st5" points="395.6,144.2 408.9,144.2 415.2,144.2 443.6,144.2 458,144.1 463.2,144.1 476,99 456.4,99 
			449.1,124.8 420.5,124.8 434.4,74.3 481.6,74.2 486.9,54.8 439.8,54.9 437.8,54.9 420.2,54.9 		"/>
	</g>
	<g>
		<polygon class="st5" points="473.5,144.1 493,144.1 503.9,104.6 530.7,104.6 519.8,144.1 539.4,144.1 564,54.8 544.4,54.8 
			536,85.3 509.2,85.3 517.6,54.8 498.1,54.8 		"/>
	</g>
	<g>
		<polygon class="st5" points="232.3,108.6 251.9,108.6 251.9,108.6 268.9,108.5 264.2,125 228.1,125 222.8,144.4 258.8,144.4 
			271.8,144.3 278.4,144.3 293.9,89.1 274.3,89.1 274.3,89.2 257.4,89.2 261.5,74.4 299.7,74.4 305,55 266.9,55.1 255.9,55.1 
			247.4,55.1 237.8,89.2 237.8,89.2 237.2,91.1 		"/>
	</g>
</g>
<g>
</g>
<g>
</g>
<g>
</g>
<g>
</g>
<g>
</g>
<g>
</g>
<g>
</g>
<g>
</g>
<g>
</g>
<g>
</g>
<g>
</g>
<g>
</g>
<g>
</g>
<g>
</g>
<g>
</g>
</svg>
